<?xml version="1.0" encoding="UTF-8"?>
<svg version="1.1" xmlns="http://www.w3.org/2000/svg" width="2644" height="777">
<path d="M0 0 C4.23892313 0.00232424 8.47784237 -0.00121479 12.71676469 -0.00396682 C20.1608733 -0.00800363 27.60497492 -0.00835406 35.04908422 -0.00626088 C46.19342471 -0.00314448 57.33775882 -0.00580582 68.48209885 -0.00955958 C87.47888613 -0.0157871 106.47567113 -0.01726661 125.47245929 -0.01614211 C144.72005486 -0.01501712 163.9676485 -0.01605363 183.21524379 -0.01971458 C184.43164434 -0.01994423 185.6480449 -0.02017388 186.90130607 -0.02041049 C191.85567232 -0.02135215 196.81003856 -0.02230784 201.7644048 -0.02328168 C252.74025675 -0.03328695 303.71610743 -0.0364735 354.6919601 -0.03705012 C360.24988809 -0.03711337 365.80781608 -0.03717989 371.36574407 -0.03725067 C372.75886246 -0.03726836 374.15198084 -0.03728574 375.54509923 -0.03730279 C406.83020553 -0.03769081 438.11531161 -0.03987028 469.4004178 -0.04243305 C476.38584174 -0.04300461 483.37126568 -0.04355859 490.35668961 -0.04411368 C491.05010274 -0.0441688 491.74351586 -0.04422392 492.45794151 -0.04428072 C496.66716072 -0.04461522 500.87637993 -0.04494899 505.08559914 -0.04528228 C507.19424687 -0.04544936 509.30289461 -0.04561687 511.41154234 -0.04578442 C544.1962246 -0.04838619 576.98090689 -0.05061653 609.76558921 -0.05246661 C610.83705143 -0.05252717 610.83705143 -0.05252717 611.93015935 -0.05258895 C657.44188811 -0.0551517 702.95361675 -0.05605149 748.46534558 -0.05578861 C750.70291416 -0.05577586 752.94048274 -0.0557639 755.17805133 -0.0557522 C770.89727567 -0.05566986 786.61650001 -0.05556716 802.33572435 -0.05545932 C806.84260423 -0.05542855 811.3494841 -0.05539849 815.85636397 -0.05536851 C819.61568697 -0.05534341 823.37500997 -0.05531762 827.13433297 -0.0552904 C898.12426055 -0.05477908 969.11418699 -0.05619442 1040.10411402 -0.06563781 C1040.85130525 -0.06573717 1041.59849647 -0.06583653 1042.36832984 -0.06593889 C1065.71405513 -0.06905023 1089.05978038 -0.07241673 1112.40550563 -0.07583068 C1136.36098587 -0.07933226 1160.31646612 -0.0828028 1184.2719464 -0.08609508 C1185.37843334 -0.08624737 1185.37843334 -0.08624737 1186.50727356 -0.08640273 C1232.72681176 -0.09275488 1278.94634965 -0.09667434 1325.16588828 -0.09795306 C1325.88005894 -0.09797309 1326.5942296 -0.09799312 1327.33004179 -0.09801375 C1358.69909432 -0.0988892 1390.06814683 -0.0992088 1421.43719937 -0.09892287 C1434.05812489 -0.09880859 1446.67905041 -0.09875252 1459.29997594 -0.09871955 C1461.3924909 -0.09871315 1463.48500587 -0.09870407 1465.57752084 -0.0986944 C1497.5562602 -0.09855802 1529.53499852 -0.09989676 1561.51373741 -0.10573957 C1562.20252629 -0.10586525 1562.89131517 -0.10599092 1563.60097644 -0.1061204 C1574.67968507 -0.1081492 1585.75839368 -0.11029329 1596.83710228 -0.11244721 C1642.29717873 -0.1212783 1687.75725081 -0.12378497 1733.21732818 -0.11708689 C1739.41059039 -0.11617465 1745.6038526 -0.11533136 1751.79711482 -0.11452888 C1753.01110727 -0.11436879 1754.22509972 -0.1142087 1755.47587981 -0.11404376 C1774.66131837 -0.11169513 1793.84674926 -0.11603821 1813.03218638 -0.12320006 C1831.9194101 -0.13010948 1850.80662256 -0.12982531 1869.69384604 -0.12200793 C1880.75148555 -0.11764299 1891.8090918 -0.11865857 1902.86672852 -0.12787471 C1910.2322481 -0.13345906 1917.59774312 -0.1316456 1924.96326085 -0.12409193 C1929.12453068 -0.1200233 1933.28573559 -0.11882347 1937.44700118 -0.12684262 C1953.72215007 -0.15592979 1969.94434582 0.07264419 1986.19713583 0.97756668 C1986.88314332 1.01348601 1987.56915081 1.04940534 1988.27594641 1.08641313 C2035.55837727 3.63319629 2085.19061564 20.67188962 2124.99168727 46.12997987 C2125.73644313 46.60580506 2126.48119899 47.08163026 2127.2485232 47.5718744 C2153.2131718 64.28831797 2178.01891085 84.47124043 2197.99168727 108.12997987 C2198.71614039 108.96529237 2199.44059352 109.80060487 2200.18699977 110.66122987 C2212.26177704 124.79376662 2222.71700425 140.03475041 2231.99168727 156.12997987 C2232.50731227 157.01894959 2233.02293727 157.90791932 2233.55418727 158.82382752 C2258.36464019 201.96628277 2273.31881186 251.6239512 2273.28221461 301.57236268 C2273.28822011 303.24208409 2273.29503018 304.91180277 2273.30256984 306.58151795 C2273.32003983 311.06580174 2273.32491731 315.55000893 2273.32620141 320.03432347 C2273.3276354 322.85400513 2273.3319284 325.67366808 2273.33719584 328.49334504 C2273.35563923 338.38232674 2273.36387436 348.27125498 2273.36229274 358.1602533 C2273.36109558 367.2924649 2273.38212879 376.42443856 2273.41378006 385.5565901 C2273.44018518 393.46476271 2273.4506499 401.37285883 2273.44938192 409.28107502 C2273.44887897 413.97391121 2273.45418174 418.66653591 2273.47573802 423.3593271 C2273.74859693 487.23136295 2258.66520048 551.38706136 2220.99168727 604.12997987 C2220.18114268 605.28838037 2219.37128505 606.44726174 2218.56199977 607.60654237 C2213.61566071 614.65327789 2208.49357557 621.50361805 2202.99168727 628.12997987 C2202.20278102 629.10451112 2201.41387477 630.07904237 2200.60106227 631.08310487 C2194.1336621 638.94480358 2187.1048935 646.23009019 2179.92918727 653.44247987 C2179.01959254 654.36125916 2178.10999781 655.28003846 2177.17283961 656.22665955 C2171.08655858 662.28558897 2164.73405423 667.8148807 2157.99168727 673.12997987 C2157.2706985 673.70498231 2156.54970973 674.27998475 2155.80687281 674.87241151 C2140.14003981 687.2898273 2123.61635073 697.72908065 2105.99168727 707.12997987 C2105.36568629 707.4709369 2104.73968531 707.81189393 2104.09471461 708.16318299 C2062.22760707 730.88684643 2013.06549175 742.33953569 1965.56790885 742.2564797 C1964.13756343 742.25759903 1962.7072183 742.25915585 1961.27687378 742.2611056 C1957.35466175 742.26519114 1953.43247408 742.26309147 1949.51026208 742.25995973 C1945.22412831 742.25764976 1940.93799853 742.26116783 1936.65186557 742.26392655 C1929.113682 742.26797608 1921.57550534 742.26830807 1914.03732107 742.26622061 C1902.75221567 742.26311271 1891.4671166 742.26575907 1880.18201165 742.26951932 C1860.94853913 742.27575616 1841.71506886 742.27722497 1822.48159549 742.27610185 C1802.98757365 742.27497784 1783.49355373 742.27600993 1763.99953219 742.27967431 C1762.15329593 742.28001879 1762.15329593 742.28001879 1760.26976197 742.28037023 C1755.25686626 742.28131186 1750.24397055 742.28226754 1745.23107484 742.28324142 C1693.62195856 742.29325306 1642.01284381 742.29643347 1590.40372681 742.29700985 C1584.77463237 742.2970731 1579.14553793 742.29713963 1573.5164435 742.29721041 C1572.10553838 742.2972281 1570.69463326 742.29724547 1569.28372815 742.29726253 C1537.61625983 742.29765034 1505.94879174 742.29982905 1474.28132354 742.30239278 C1467.21326972 742.30296434 1460.1452159 742.30351832 1453.07716208 742.30407342 C1452.37555947 742.30412854 1451.67395685 742.30418366 1450.95109356 742.30424045 C1446.6922169 742.30457495 1442.43334024 742.30490872 1438.17446359 742.30524201 C1436.04098063 742.30540909 1433.90749767 742.3055766 1431.77401471 742.30574415 C1398.60196305 742.30834604 1365.42991138 742.31057634 1332.25785968 742.31242635 C1331.53508365 742.31246672 1330.81230761 742.31250709 1330.06762928 742.31254868 C1284.00945332 742.31511182 1237.95127749 742.31601118 1191.89310147 742.31574835 C1189.62829003 742.31573559 1187.36347859 742.31572363 1185.09866715 742.31571194 C1169.18756552 742.3156296 1153.2764639 742.31552689 1137.36536228 742.31541906 C1132.80333906 742.31538829 1128.24131585 742.31535822 1123.67929263 742.31532824 C1119.87397001 742.31530315 1116.06864738 742.31527736 1112.26332476 742.31525013 C1040.39610601 742.31473875 968.52888839 742.3161555 896.66167018 742.32559754 C895.52687266 742.32574658 895.52687266 742.32574658 894.36914994 742.32589863 C870.73161027 742.32900997 847.09407064 742.33237646 823.45653102 742.33579041 C799.20231007 742.33929189 774.94808911 742.34276238 750.69386813 742.34605481 C749.57363785 742.3462071 749.57363785 742.3462071 748.43077667 742.34636247 C701.65166655 742.35271267 654.87255675 742.35663369 608.09344622 742.3579128 C607.0095407 742.35794284 607.0095407 742.35794284 605.90373809 742.35797349 C574.16719491 742.35884886 542.43065174 742.35916857 510.69410855 742.3588826 C497.92604846 742.35876832 485.15798838 742.35871225 472.38992829 742.35867928 C470.27295495 742.35867288 468.1559816 742.3586638 466.03900826 742.35865413 C433.66796196 742.35851768 401.29691669 742.35986107 368.92587086 742.36569931 C368.22808461 742.36582498 367.53029835 742.36595065 366.81136705 742.36608013 C355.58708985 742.36810908 344.36281267 742.37025312 333.13853549 742.37240694 C287.12126468 742.38122993 241.10399916 742.3837518 195.08672739 742.37704663 C188.82376926 742.37613433 182.56081111 742.37529105 176.29785296 742.37448861 C175.0701464 742.37432852 173.84243984 742.37416844 172.57753005 742.3740035 C153.14049844 742.37165079 133.70347437 742.37600739 114.26644417 742.3831598 C95.15222092 742.39005294 76.0380088 742.38980383 56.92378579 742.38196766 C45.71938656 742.37758735 34.51502013 742.37865532 23.31062363 742.38783445 C15.86313276 742.39338714 8.41566631 742.39164513 0.96817731 742.38405166 C-3.24955258 742.37995295 -7.46721808 742.37886618 -11.68494396 742.38680235 C-103.32738715 742.54783424 -184.29068515 710.53900073 -249.38331273 645.87997987 C-269.9365986 625.38459058 -286.59522152 600.77685854 -300.00831273 575.12997987 C-300.36087133 574.46192323 -300.71342992 573.79386659 -301.07667211 573.1055658 C-318.69008977 539.54754397 -329.90135686 502.81983986 -334.00831273 465.12997987 C-334.13806131 463.99423335 -334.13806131 463.99423335 -334.27043107 462.83554246 C-335.12353453 454.60599855 -335.17080163 446.39839515 -335.18531469 438.13486268 C-335.19159464 436.54808958 -335.19824274 434.9613179 -335.20522741 433.37454774 C-335.22611446 428.19407688 -335.23662571 423.01360629 -335.24659398 417.83310487 C-335.25064937 416.03247352 -335.2547665 414.23184232 -335.25894407 412.43121125 C-335.27797392 403.95281845 -335.29220112 395.47443416 -335.30055603 386.99602415 C-335.31027501 377.29987368 -335.33646277 367.60395473 -335.37705693 357.90788557 C-335.40754762 350.35819547 -335.42205617 342.80857039 -335.42533705 335.25882008 C-335.42765327 330.77708058 -335.43615029 326.29558877 -335.46179822 321.81391694 C-335.74421577 269.72303947 -326.48724954 219.97104285 -303.00831273 173.12997987 C-302.62465551 172.35315858 -302.24099828 171.57633729 -301.84571508 170.77597596 C-289.40604954 145.73751375 -272.93204491 122.98497412 -254.05128148 102.41904237 C-251.92938081 100.09902285 -251.92938081 100.09902285 -249.87159398 97.34091737 C-249.25671117 96.61130799 -248.64182836 95.88169862 -248.00831273 95.12997987 C-247.34831273 95.12997987 -246.68831273 95.12997987 -246.00831273 95.12997987 C-245.76983617 94.55505799 -245.53135961 93.98013612 -245.28565648 93.38779237 C-243.73941853 90.65468676 -241.94264166 89.06182991 -239.57081273 87.00497987 C-235.96814078 83.85392492 -232.43511093 80.65586533 -228.94581273 77.37997987 C-165.14901574 19.29227124 -83.85068958 -0.06824458 0 0 Z " fill="#F3FEF8" transform="translate(350.0083127329126,26.870020132511854)"/>
<path d="M0 0 C0.78068848 0.00725098 1.56137695 0.01450195 2.36572266 0.02197266 C22.25686522 0.28802965 43.07918369 3.90020356 62 10 C62.98806641 10.31001953 63.97613281 10.62003906 64.99414062 10.93945312 C97.82458948 21.34174025 128.04356805 36.40272869 155 58 C155.84208008 58.66854004 155.84208008 58.66854004 156.70117188 59.35058594 C164.88854138 65.91301815 172.37004519 73.17471648 179.8125 80.5625 C180.68414795 81.42480225 181.5557959 82.28710449 182.45385742 83.17553711 C197.62969825 98.42647012 210.57188761 116.18775324 221 135 C221.45729492 135.82032715 221.91458984 136.6406543 222.38574219 137.48583984 C240.10647459 169.56889294 252.23143091 204.29042571 255 241 C255.12701294 242.65213501 255.12701294 242.65213501 255.2565918 244.33764648 C260.05561964 310.84464285 243.47269132 376.94107437 202 430 C201.29230469 430.91910156 200.58460938 431.83820313 199.85546875 432.78515625 C195.89531922 437.8388382 191.70526587 442.64717643 187.37109375 447.3828125 C185.43965936 449.51470878 183.55911586 451.67499011 181.68359375 453.85546875 C146.93886358 493.60622894 94.1476616 520.54147702 43 531 C42.09701172 531.18933105 41.19402344 531.37866211 40.26367188 531.57373047 C37.51175688 532.1466432 34.75711867 532.70271145 32 533.25 C31.18821289 533.41346924 30.37642578 533.57693848 29.54003906 533.74536133 C-36.38384712 546.24104335 -107.59821622 527.84620849 -162.56665039 490.79589844 C-168.90606624 486.44283847 -175.02587756 481.84097557 -181 477 C-181.54978516 476.55462891 -182.09957031 476.10925781 -182.66601562 475.65039062 C-196.3894143 464.4279112 -209.14510188 452.03582064 -220 438 C-220.87556651 436.91241892 -221.75329085 435.82657257 -222.6328125 434.7421875 C-267.46859603 379.17351371 -286.58367149 307.24210162 -279.27734375 236.52734375 C-277.63699501 222.43259256 -275.07910843 208.59328495 -271 195 C-270.75942871 194.18370117 -270.51885742 193.36740234 -270.27099609 192.52636719 C-262.27188818 165.82838 -250.22281294 139.71803692 -234 117 C-233.59845703 116.43007324 -233.19691406 115.86014648 -232.78320312 115.27294922 C-226.44291745 106.29405594 -219.67111038 97.80907452 -212.39160156 89.57519531 C-211.09421116 88.10664042 -209.80835564 86.62791738 -208.5234375 85.1484375 C-204.64514079 80.73704158 -200.69457309 76.67060861 -196.19921875 72.890625 C-193.55089255 70.61391118 -191.03872717 68.21075779 -188.5 65.8125 C-175.91400982 54.16624234 -161.66217706 44.80764671 -147 36 C-146.27087402 35.55914062 -145.54174805 35.11828125 -144.79052734 34.6640625 C-100.76449029 8.31431464 -50.67862211 -0.74514494 0 0 Z " fill="#0B7A4B" transform="translate(398,130)"/>
<path d="M0 0 C6.93 0 13.86 0 21 0 C21.01458252 3.30604248 21.02916504 6.61208496 21.04418945 10.01831055 C21.0945 20.93483366 21.16108889 31.85121361 21.23571491 42.76759624 C21.28046468 49.38696262 21.31971084 56.00626678 21.34643555 62.62573242 C21.37242226 69.01248142 21.41279227 75.39899161 21.46318626 81.78559303 C21.47988626 84.22363124 21.49138097 86.66171077 21.49761391 89.0997982 C21.50722066 92.51169312 21.53524007 95.92297273 21.56762695 99.3347168 C21.56619186 100.34532166 21.56475677 101.35592651 21.5632782 102.39715576 C21.63623114 109.20179584 21.63623114 109.20179584 25 115 C28.70126859 117.46751239 30.62223532 117.30721156 35 117 C37.75686027 116.15762603 38.76129979 115.29241069 40.58235168 113.06159973 C42.63996053 108.61792029 42.43951432 104.54474308 42.43237305 99.7019043 C42.4425647 98.66729568 42.45275635 97.63268707 42.46325684 96.56672668 C42.49341202 93.15250246 42.50265687 89.73855871 42.51171875 86.32421875 C42.52856352 83.95480922 42.54671348 81.58540864 42.56611633 79.21601868 C42.61364415 72.98374222 42.64343572 66.75150205 42.66955566 60.519104 C42.69934699 54.15784541 42.74588227 47.79671184 42.79101562 41.43554688 C42.87708052 28.95709661 42.9444118 16.47862064 43 4 C48.54844997 3.96124327 52.65480928 4.42904478 57.8125 6.3125 C58.47958984 6.50650391 59.14667969 6.70050781 59.83398438 6.90039062 C62.00296876 7.69925975 63.30210413 8.42269361 65 10 C65.70120239 12.19561768 65.70120239 12.19561768 66.10986328 14.86035156 C66.26391129 15.84840286 66.41795929 16.83645416 66.57667542 17.85444641 C67.28307068 23.10338364 67.91151068 28.35463548 68.47265625 33.62109375 C68.60063095 34.80107437 68.72860565 35.98105499 68.86045837 37.1967926 C69.12882706 39.68330248 69.39511631 42.17003758 69.65942383 44.65698242 C70.05812655 48.39648067 70.46711856 52.13475435 70.87695312 55.87304688 C72.94473577 74.99936077 74.19039623 93.99294405 74.24023438 113.23046875 C74.24680662 114.75785955 74.26061128 116.2852345 74.28125 117.8125 C74.52057351 135.52243993 71.40124554 151.22550894 58.7578125 164.5546875 C53.81330656 168.93890948 48.26477455 172.38671368 42.69287109 175.91308594 C40.48950964 177.3277622 38.35894027 178.82350605 36.25 180.375 C35.67765625 180.79523438 35.1053125 181.21546875 34.515625 181.6484375 C31.21988687 184.58742047 30.08386569 186.14691461 29.63671875 190.6953125 C29.6348664 192.17197086 29.65301464 193.64874321 29.6875 195.125 C29.6980542 195.9183374 29.7086084 196.7116748 29.71948242 197.52905273 C29.96555827 208.81625129 31.42021338 219.87903627 33.4140625 230.98046875 C34.85203575 238.9936017 36.10507452 247.02297497 37.25268555 255.08251953 C37.56062155 257.23685824 37.87678693 259.38988439 38.19335938 261.54296875 C40.83993605 279.80673092 42.35703437 297.89498948 42.31567383 316.35864258 C42.31248265 319.32865153 42.33621948 322.29768874 42.36132812 325.26757812 C42.40995398 339.47959024 41.84048246 353.55008869 35.625 366.625 C35.3465625 367.26566406 35.068125 367.90632813 34.78125 368.56640625 C32.09510511 374.48318486 28.59144703 379.46109282 22.875 382.8125 C22.21242188 383.21082031 21.54984375 383.60914063 20.8671875 384.01953125 C15.02654552 387.08647924 8.40140665 386.72521383 2 386 C-1.582904 384.55444795 -4.17726284 382.61278151 -7 380 C-7.56203125 379.505 -8.1240625 379.01 -8.703125 378.5 C-13.79436836 373.35732994 -15.92480662 366.79469671 -18 360 C-18.19899902 359.36658691 -18.39799805 358.73317383 -18.60302734 358.08056641 C-25.97143032 333.38042441 -23.19547574 303.25308139 -20 278 C-19.83870605 276.70078613 -19.67741211 275.40157227 -19.51123047 274.06298828 C-17.69525439 259.56082844 -15.69524275 245.0889042 -13.33984375 230.6640625 C-13.20190399 229.81463577 -13.06396423 228.96520905 -12.92184448 228.09004211 C-12.25772713 224.01135357 -11.58073055 219.93557565 -10.87988281 215.86303711 C-7.54272007 199.36036568 -7.54272007 199.36036568 -12 184 C-12 183.34 -12 182.68 -12 182 C-12.56589844 181.73445312 -13.13179688 181.46890625 -13.71484375 181.1953125 C-17.09953291 179.42485971 -20.1082581 177.19878951 -23.21484375 174.984375 C-25.06877311 173.66348284 -26.93611293 172.36121004 -28.81640625 171.078125 C-41.67358651 162.13710952 -49.59575372 151.41111492 -53 136 C-53.82931873 130.27828341 -54.1838506 124.69930996 -54.23828125 118.921875 C-54.24798447 118.05390793 -54.25768768 117.18594086 -54.26768494 116.29167175 C-54.29275474 113.44440033 -54.30526225 110.59737128 -54.3125 107.75 C-54.31511841 106.76613312 -54.31773682 105.78226624 -54.32043457 104.76858521 C-54.326427 83.50551143 -52.67890333 62.52795598 -50.27209473 41.41424561 C-50.00982312 39.08715868 -49.76014335 36.75908565 -49.51464844 34.43017578 C-49.09168911 30.44789622 -48.61676347 26.47438607 -48.125 22.5 C-48.0002832 21.3668335 -47.87556641 20.23366699 -47.74707031 19.06616211 C-46.72971214 11.68216715 -46.72971214 11.68216715 -43.2421875 8.421875 C-40.17560392 7.07701184 -37.1820726 5.79411757 -34 4.75 C-33.01 4.41484375 -32.02 4.0796875 -31 3.734375 C-27.88084506 2.97083186 -25.19709141 2.94782524 -22 3 C-21.99853344 3.5459186 -21.99706688 4.0918372 -21.99555588 4.65429878 C-21.95847066 17.95046341 -21.89918162 31.2463703 -21.81609726 44.54232979 C-21.77658709 50.97224067 -21.74441578 57.40201387 -21.72900391 63.83203125 C-21.71386095 70.03729037 -21.67945659 76.24217105 -21.63169098 82.44726181 C-21.61685295 84.81469305 -21.6089576 87.18217832 -21.60811615 89.54965591 C-21.60575214 92.86570847 -21.57871619 96.18071041 -21.54589844 99.49658203 C-21.5509288 100.4755394 -21.55595917 101.45449677 -21.56114197 102.46311951 C-21.47234312 108.26204078 -20.8475432 111.57252309 -17 116 C-13.44870378 117.77564811 -9.49219953 117.45594986 -5.75 116.3125 C-3.21639515 114.41229636 -2.34214282 112.92026251 -1 110 C-0.54117775 106.44735505 -0.56254556 102.91308572 -0.56762695 99.3347168 C-0.5574353 98.2610939 -0.54724365 97.18747101 -0.53674316 96.08131409 C-0.50658041 92.53722945 -0.49734194 88.99341496 -0.48828125 85.44921875 C-0.47143705 82.99012857 -0.45328717 80.53104702 -0.43388367 78.07197571 C-0.38634971 71.6029632 -0.3565621 65.13398566 -0.33044434 58.66485596 C-0.30065612 52.06230768 -0.25411977 45.45987992 -0.20898438 38.85742188 C-0.12291239 25.90499703 -0.05713215 12.95258487 0 0 Z " fill="#F2FEF8" transform="translate(322,205)"/>
<path d="M0 0 C25.41 0 50.82 0 77 0 C90.67217094 31.9017322 90.67217094 31.9017322 95.76974487 44.43206787 C97.43984581 48.53642993 99.11896084 52.63710862 100.796875 56.73828125 C101.14233871 57.58314087 101.48780243 58.42800049 101.84373474 59.29846191 C105.67818907 68.66979978 109.55546139 78.02329467 113.4375 87.375 C113.95694183 88.62654877 113.95694183 88.62654877 114.48687744 89.90338135 C116.25222317 94.15662862 118.01807757 98.40966442 119.78417969 102.66259766 C123.32943446 111.20091485 126.86921524 119.74150278 130.40969849 128.28179932 C132.23258465 132.67882754 134.05575171 137.07573929 135.87890625 141.47265625 C136.48901508 142.94409121 137.09912266 144.4155267 137.70922852 145.88696289 C138.13518311 146.91426514 138.5611377 147.94156738 139 149 C140.73897233 146.39154151 141.75367069 144.29897747 142.85327148 141.40405273 C143.21296524 140.46258896 143.572659 139.52112518 143.94325256 138.5511322 C144.33194016 137.52234451 144.72062775 136.49355682 145.12109375 135.43359375 C145.53270248 134.35304214 145.94431122 133.27249054 146.36839294 132.15919495 C147.72828274 128.58662462 149.08287466 125.01206943 150.4375 121.4375 C151.38589106 118.94322947 152.33458548 116.4490765 153.28369141 113.95507812 C155.72266836 107.54392617 158.15679846 101.13094266 160.58966064 94.71746826 C162.75486166 89.01028436 164.92232847 83.30396155 167.08984375 77.59765625 C167.49165359 76.53976898 167.89346344 75.48188171 168.30744934 74.39193726 C169.4965736 71.26126898 170.6857825 68.13063286 171.875 65 C172.45587875 63.47064819 172.45587875 63.47064819 173.04849243 61.91040039 C178.22579746 48.28064847 183.40861344 34.65301354 188.62799072 21.03930664 C189.28722829 19.31895286 189.94556884 17.59825505 190.60296631 15.87719727 C191.49571455 13.54081557 192.39185887 11.20576744 193.2890625 8.87109375 C193.55160828 8.18212509 193.81415405 7.49315643 194.08465576 6.78330994 C195.88553742 2.11446258 195.88553742 2.11446258 197 1 C198.45315991 0.87751735 199.9120648 0.82222705 201.37011719 0.79467773 C202.30329773 0.77473251 203.23647827 0.75478729 204.19793701 0.73423767 C205.22058655 0.71752518 206.24323608 0.70081268 207.296875 0.68359375 C208.88474823 0.6524221 208.88474823 0.6524221 210.50469971 0.62062073 C212.76448337 0.57721909 215.02431371 0.5361949 217.28417969 0.49731445 C220.66613555 0.43894736 224.04789031 0.37351092 227.4296875 0.30664062 C240.95454059 0.04941903 254.47287694 -0.05667789 268 0 C268 1.98 268 3.96 268 6 C266.97519531 6.17015625 265.95039062 6.3403125 264.89453125 6.515625 C263.53371354 6.75963369 262.17304392 7.00446928 260.8125 7.25 C259.80219727 7.41435547 259.80219727 7.41435547 258.77148438 7.58203125 C254.17712224 8.43366911 251.26205816 9.6365616 248 13 C245.88483542 17.11211699 245.71439123 20.91864027 245.73930359 25.45013428 C245.73547804 26.19126284 245.73165249 26.9323914 245.72771102 27.6959784 C245.71740806 30.17467013 245.72136804 32.65312904 245.7253418 35.13183594 C245.72099373 36.91105361 245.71581026 38.69026941 245.70985413 40.46948242 C245.69646056 45.30023618 245.69588605 50.13091171 245.69841743 54.96168041 C245.69948727 58.99726244 245.69460323 63.03282866 245.689812 67.0684073 C245.67871477 76.59281742 245.6782801 86.1171881 245.68432617 95.64160156 C245.69036189 105.4578342 245.67806565 115.27392336 245.6567561 125.09013152 C245.63912192 133.52428275 245.63314176 141.9583884 245.63639385 150.39255738 C245.63820454 155.42694387 245.63559216 160.46122809 245.62167931 165.49559784 C245.60907668 170.23328565 245.61106811 174.97075055 245.62409019 179.70843506 C245.62645053 181.44299648 245.62374082 183.17757371 245.61546707 184.912117 C245.49042237 197.26179148 245.49042237 197.26179148 249 209 C252.6552348 212.25834416 256.54169761 212.6078698 261.3125 213.1875 C262.56675781 213.34605469 263.82101562 213.50460937 265.11328125 213.66796875 C266.06589844 213.77753906 267.01851562 213.88710938 268 214 C268 215.98 268 217.96 268 220 C235.66 220 203.32 220 170 220 C170 218.02 170 216.04 170 214 C170.85722656 213.89042969 171.71445312 213.78085937 172.59765625 213.66796875 C181.71764899 212.58322154 181.71764899 212.58322154 190 209 C193.29337516 202.96214555 194.12526084 197.85370506 194.12025452 191.06512451 C194.12110894 190.36750291 194.12196337 189.66988131 194.12284368 188.95111966 C194.12449042 186.61419686 194.1189903 184.27734588 194.11352539 181.94042969 C194.11324332 180.26498415 194.11340164 178.58953849 194.1139679 176.91409302 C194.11425509 172.36487738 194.1083709 167.81568805 194.10139394 163.26647854 C194.09514748 158.51255361 194.09455558 153.7586281 194.09336853 149.00469971 C194.09025903 140.00208821 194.08205077 130.99948883 194.07201904 121.99688268 C194.06084608 111.74789346 194.05534447 101.49890367 194.05032361 91.24990988 C194.03986786 70.16659981 194.02227577 49.08330067 194 28 C193.5888092 29.0997818 193.17761841 30.1995636 192.75396729 31.33267212 C178.15222876 70.37662039 178.15222876 70.37662039 171.69012451 86.96133423 C169.9408907 91.4522987 168.20074088 95.94678159 166.4609375 100.44140625 C165.91857956 101.84252907 165.91857956 101.84252907 165.36526489 103.2719574 C160.98640023 114.60022654 156.68161503 125.95661618 152.375 137.3125 C129.23056587 198.32170878 129.23056587 198.32170878 120 221 C118.35 221 116.7 221 115 221 C110.80924389 212.12556959 106.91350598 203.16549363 103.16781616 194.09689331 C101.87757482 190.97341529 100.58134175 187.85243313 99.28556824 184.73124695 C98.59275675 183.06234501 97.90022532 181.39332679 97.20796204 179.72419739 C93.22337102 170.11932654 89.20552134 160.52842167 85.1875 150.9375 C84.42672795 149.1209435 83.66598593 147.30437441 82.90527344 145.48779297 C81.36976027 141.82107127 79.83410164 138.15441054 78.29833984 134.48779297 C74.90406966 126.38366491 71.51171561 118.27873478 68.11923218 110.17385864 C67.00377974 107.50902985 65.88825528 104.84423122 64.77270508 102.17944336 C61.30440892 93.89445659 57.83639342 85.60935265 54.36932373 77.32385254 C52.75836487 73.47407724 51.14725401 69.62436556 49.53613281 65.7746582 C48.77922158 63.9659332 48.02238215 62.15717815 47.265625 60.34838867 C46.20592043 57.81551237 45.14595134 55.28274689 44.0859375 52.75 C43.79069183 52.04411743 43.49544617 51.33823486 43.19125366 50.61096191 C39.47555302 41.73446283 35.73565413 32.86811465 32 24 C31.95319686 44.91491739 31.91797049 65.8298261 31.89637566 86.74478531 C31.88608052 96.45682785 31.87205402 106.16883777 31.84912109 115.88085938 C31.82913311 124.34977292 31.81627076 132.81866284 31.81182301 141.28759933 C31.80922477 145.7682626 31.80315477 150.24885829 31.78853989 154.72949982 C31.77487037 158.95491614 31.77079612 163.18023764 31.77378464 167.40567398 C31.77323864 168.94869377 31.76931738 170.49171703 31.76158905 172.03471756 C31.2969628 189.91867634 31.2969628 189.91867634 38 206 C44.07772309 211.99919954 52.93109335 212.70771417 61 214 C61 215.98 61 217.96 61 220 C40.87 220 20.74 220 0 220 C0 218.02 0 216.04 0 214 C0.71285156 213.84144531 1.42570313 213.68289063 2.16015625 213.51953125 C8.14926944 212.06054136 13.73487938 210.69285478 18 206 C19.50163661 203.42247816 20.23876054 200.87057435 21 198 C21.17945758 197.32708137 21.35891516 196.65416273 21.54381084 195.96085262 C23.39534497 187.95954292 23.28923745 179.96272478 23.2746582 171.80102539 C23.27901267 170.18194851 23.28419826 168.56287369 23.29014587 166.94380188 C23.303467 162.57187059 23.30412234 158.20002612 23.30158257 153.82807851 C23.30050833 150.16771808 23.3054077 146.50737489 23.310188 142.84701818 C23.32125901 134.20699949 23.32173393 125.56702429 23.31567383 116.92700195 C23.30963331 108.03603168 23.32195256 99.14521963 23.3432439 90.25427634 C23.36089753 82.59875424 23.3668554 74.94328234 23.36360615 67.28774065 C23.36179941 62.72508366 23.36436858 58.16253961 23.37832069 53.5999012 C23.39095613 49.30781453 23.38890129 45.01597349 23.37590981 40.7238903 C23.373557 39.15625803 23.37623179 37.58860815 23.38453293 36.02099609 C23.76084694 23.09844494 23.76084694 23.09844494 20 11 C17.60913313 9.70291703 17.60913313 9.70291703 15 9 C14.01 8.67 13.02 8.34 12 8 C9.94106379 7.77674186 7.87766347 7.59294241 5.8125 7.4375 C4.72582031 7.35371094 3.63914062 7.26992187 2.51953125 7.18359375 C1.68808594 7.12300781 0.85664062 7.06242188 0 7 C0 4.69 0 2.38 0 0 Z " fill="#2A5617" transform="translate(784,174)"/>
<path d="M0 0 C15.48109069 2.71081023 31.06702628 19.86899094 40 32 C42.91230379 36.2042685 45.55269407 40.51164092 48 45 C48.33773437 45.61939453 48.67546875 46.23878906 49.0234375 46.87695312 C65.98027481 78.71883371 68.21498165 115.40478293 57.82348633 149.62084961 C52.94474878 164.85008994 46.75118662 179.7068787 40.7734375 194.53125 C32.12956595 216.0527261 31.75129609 233.15318522 36.76171875 255.37890625 C40.72131505 273.12376373 42.52879411 290.51166971 42.375 308.6875 C42.36951645 310.11411453 42.36951645 310.11411453 42.36392212 311.56954956 C42.10642769 368.89357231 42.10642769 368.89357231 28 383 C25.05562437 385.20828172 21.8183999 385.61517015 18.15625 385.4921875 C13.65807984 384.46543127 10.7704249 381.55845687 8 378 C6.21117519 374.43293514 5.03219335 370.84773065 4 367 C3.67663603 365.81342363 3.35327206 364.62684727 3.02010918 363.40431404 C-1.5622212 344.88768648 -0.28282982 324.89896599 -0.23213124 305.95556879 C-0.22336923 301.83594479 -0.22642576 297.71632566 -0.22793579 293.59669495 C-0.22897671 286.48541872 -0.22278396 279.37417964 -0.21146011 272.26291275 C-0.1950992 261.98163938 -0.18998637 251.70038369 -0.18748413 241.41909872 C-0.1831235 224.73218849 -0.16985905 208.04529798 -0.15087891 191.35839844 C-0.13247761 175.16341245 -0.11834199 158.96843185 -0.10986328 142.7734375 C-0.10933783 141.77259991 -0.10881239 140.77176231 -0.10827102 139.74059631 C-0.10566065 134.71891829 -0.10313331 129.69724023 -0.10064721 124.67556214 C-0.07996561 83.11702772 -0.04478498 41.558515 0 0 Z " fill="#F3FEF8" transform="translate(440,206)"/>
<path d="M0 0 C55.11 0 110.22 0 167 0 C166.67 6.6 166.34 13.2 166 20 C165.87277867 24.08015887 165.75733218 28.15381155 165.68359375 32.234375 C165.6524221 33.75674774 165.6524221 33.75674774 165.62062073 35.30987549 C165.5568091 38.45653592 165.49705138 41.60325639 165.4375 44.75 C165.39415324 46.92318255 165.35053484 49.09635969 165.30664062 51.26953125 C165.2013095 56.51296414 165.09960557 61.75645536 165 67 C162.69 67 160.38 67 158 67 C157.82984375 66.09121094 157.6596875 65.18242187 157.484375 64.24609375 C156.69553157 60.15501744 155.86232546 56.0761064 155 52 C154.73316406 50.7315625 154.46632813 49.463125 154.19140625 48.15625 C151.92286107 38.55778326 148.12622078 31.31069126 143 23 C142.67257812 22.25105469 142.34515625 21.50210938 142.0078125 20.73046875 C140.68581203 18.46052221 139.38736944 18.03366177 137 17 C134.73082238 15.52421238 132.46804868 14.04110793 130.21875 12.53515625 C120.56413058 7.93046519 110.71941019 7.55184943 100.1875 7.6875 C98.91712891 7.68427734 97.64675781 7.68105469 96.33789062 7.67773438 C87.46472534 7.69256663 87.46472534 7.69256663 79 10 C74.00276626 15.12873989 73.84270114 19.65651237 73.79467773 26.51049805 C73.78477814 27.37900391 73.77487854 28.24750977 73.76467896 29.14233398 C73.73307056 32.01543443 73.70830908 34.88855142 73.68359375 37.76171875 C73.66302366 39.75283744 73.64202717 41.74395177 73.62062073 43.73506165 C73.56540579 48.97767608 73.51599392 54.22032988 73.46777344 59.4630127 C73.41755423 64.81196602 73.36187035 70.16086211 73.30664062 75.50976562 C73.1990661 86.00646154 73.09761952 96.50320712 73 107 C75.53210869 106.88681096 78.06263277 106.76132581 80.59375 106.62890625 C81.30241211 106.59849243 82.01107422 106.56807861 82.74121094 106.53674316 C92.4311957 106.00490779 100.65699181 102.62632813 107.25390625 95.37109375 C113.81917934 86.45583476 117.51948243 75.68530646 120 65 C122.31 65 124.62 65 127 65 C126.99777939 65.77577896 126.99555878 66.55155792 126.99327087 67.35084534 C126.9729703 74.77533273 126.95787767 82.19980609 126.94818783 89.62431431 C126.94303828 93.43843868 126.93609107 97.25253954 126.92456055 101.06665039 C126.87250687 118.73747742 126.99957852 136.34994846 128 154 C125.69 154 123.38 154 121 154 C120.75765625 153.10539063 120.5153125 152.21078125 120.265625 151.2890625 C115.19372265 132.93686273 115.19372265 132.93686273 103.0625 118.625 C95.9196246 114.83490285 89.99378337 113.52738665 82 113.3125 C81.12988281 113.27833984 80.25976562 113.24417969 79.36328125 113.20898438 C77.24261185 113.12742017 75.12133109 113.06201472 73 113 C73.06127086 124.48342116 73.13842043 135.96661616 73.23571491 147.44979191 C73.28039891 152.78218633 73.31965952 158.11450469 73.34643555 163.44702148 C73.37248797 168.59539276 73.41290445 173.74347104 73.46318626 178.89166069 C73.4798418 180.85355415 73.49136424 182.81549827 73.49761391 184.77745247 C73.50726919 187.53041253 73.53534569 190.28262526 73.56762695 193.03540039 C73.56619186 193.84244919 73.56475677 194.64949799 73.5632782 195.48100281 C73.64952064 200.69815105 74.5599734 204.3633528 77 209 C80.92862974 212.42917943 84.93954236 212.44039133 89.94140625 212.3984375 C91.08669044 212.40274277 91.08669044 212.40274277 92.25511169 212.40713501 C93.86970766 212.40917155 95.48432853 212.40367034 97.09887695 212.39111328 C99.53069617 212.37520801 101.96081384 212.39089377 104.39257812 212.41015625 C118.73014446 212.43045284 131.22607296 210.70604776 142.375 200.9140625 C156.10025683 186.95696011 160.97127313 165.73870851 164 147 C166.64 147 169.28 147 172 147 C171.99777939 147.59007843 171.99555878 148.18015686 171.99327087 148.78811646 C171.97076821 155.05242289 171.95591082 161.31671748 171.94506836 167.58105469 C171.94010689 169.90430163 171.9333356 172.22754558 171.92456055 174.55078125 C171.9121285 177.93229931 171.90669004 181.31377539 171.90234375 184.6953125 C171.89718246 185.69732697 171.89202118 186.69934143 171.88670349 187.73171997 C171.88590339 198.53022726 172.50772475 209.16994445 173 220 C115.91 220 58.82 220 0 220 C0 218.02 0 216.04 0 214 C0.95261719 213.89042969 1.90523437 213.78085937 2.88671875 213.66796875 C4.14097656 213.50941406 5.39523437 213.35085938 6.6875 213.1875 C7.92886719 213.03667969 9.17023438 212.88585937 10.44921875 212.73046875 C14.13046771 211.97316011 16.16065869 211.45148032 19 209 C21.40603568 203.59616347 22.43896055 199.0656789 22.38095093 193.13095093 C22.3856309 192.38105884 22.39031087 191.63116676 22.39513266 190.85855067 C22.40701328 188.36824357 22.39765309 185.87849389 22.38818359 183.38818359 C22.39225232 181.5938027 22.39759589 179.79942432 22.40411377 178.00505066 C22.4177554 173.14777558 22.41250227 168.29069229 22.40297651 163.43341398 C22.39536593 158.34465243 22.40242919 153.25590699 22.40713501 148.16714478 C22.41258749 139.62474629 22.40541323 131.08242571 22.39111328 122.54003906 C22.37477731 112.66744101 22.38008421 102.79502874 22.3965925 92.92243516 C22.41020935 84.43900697 22.41212636 75.95563467 22.40427649 67.47219908 C22.39960243 62.40833911 22.39896804 57.34456647 22.40888596 52.28071213 C22.41755658 47.52164069 22.41153191 42.76280878 22.39420319 38.0037632 C22.39023932 36.25826859 22.39137069 34.51275379 22.39799118 32.76726723 C22.40620055 30.38293403 22.39589308 27.99936633 22.38095093 25.61508179 C22.38764309 24.92597226 22.39433526 24.23686272 22.40123022 23.52687109 C22.336634 18.20547275 21.02226051 14.10111011 17.296875 10.23046875 C14.09460176 8.51496523 10.79101529 7.92498185 7.25 7.3125 C6.55261719 7.18294922 5.85523438 7.05339844 5.13671875 6.91992188 C3.42624111 6.60360067 1.71333275 6.30047253 0 6 C0 4.02 0 2.04 0 0 Z " fill="#2B5717" transform="translate(1482,174)"/>
<path d="M0 0 C10.09803234 8.47285173 12.40063456 18.94993952 14.0625 31.625 C14.31494454 35.33036814 14.35344907 39.01712123 14.34960938 42.73022461 C14.35644241 43.76757751 14.36327545 44.80493042 14.37031555 45.87371826 C14.38379305 48.10142326 14.39291671 50.32915821 14.39802551 52.55689812 C14.40638346 56.08365796 14.42694687 59.61016735 14.45056152 63.13685608 C14.50668301 71.8845182 14.54224168 80.63224073 14.57818604 89.38000488 C14.60942685 96.79821242 14.64858443 104.21629481 14.69844055 111.63440132 C14.71848886 115.10710958 14.72682065 118.57972097 14.73474121 122.05247498 C14.74771028 124.17683264 14.7612301 126.30118705 14.77539062 128.42553711 C14.77440872 129.38923721 14.77342682 130.35293732 14.77241516 131.34584045 C14.81446509 135.86865181 14.90068714 139.52497881 17.0625 143.625 C23.13578688 144.13110724 26.83478537 142.66657942 32.0625 139.625 C34.0625 142.625 34.0625 142.625 33.8984375 144.65625 C31.99807634 149.13186693 26.59565818 150.95840949 22.3671875 152.796875 C16.99284679 154.86277756 11.84238265 156.38034888 6.0625 156.625 C5.07378906 156.6765625 4.08507813 156.728125 3.06640625 156.78125 C-6.97037409 157.06497524 -16.30262342 156.00224465 -24.28125 149.4296875 C-28.67431658 144.64290269 -30.00910938 138.8983968 -30.9375 132.625 C-31.47117187 133.33785156 -32.00484375 134.05070313 -32.5546875 134.78515625 C-41.1725752 145.8631676 -52.58196893 154.76829093 -66.9375 156.625 C-80.99819321 157.63151383 -93.12587579 155.88977613 -104.55859375 146.88671875 C-113.09250048 138.77320152 -116.01633515 127.97638789 -116.3125 116.5 C-116.00314619 104.68010656 -111.5093654 95.81592574 -103.0625 87.5625 C-91.45253191 77.76719919 -75.87723779 72.94053825 -61.5625 68.75 C-56.38524328 67.17901424 -51.41277987 65.2996364 -46.4375 63.1875 C-45.7667041 62.91115723 -45.0959082 62.63481445 -44.40478516 62.35009766 C-39.47000397 60.19323113 -35.86189089 57.52635041 -32.82373047 52.94580078 C-31.5659817 49.65209286 -31.61245963 46.44322158 -31.6015625 42.96484375 C-31.5949057 42.21973038 -31.5882489 41.474617 -31.58139038 40.70692444 C-31.57127831 39.12926695 -31.56657291 37.55156681 -31.56689453 35.97387695 C-31.56255826 33.59446626 -31.52633069 31.21696877 -31.48828125 28.83789062 C-31.35399105 14.80226813 -31.35399105 14.80226813 -37.68798828 2.63842773 C-43.41502146 -2.71149978 -49.01536992 -3.76421033 -56.625 -3.75 C-57.82177368 -3.7497583 -57.82177368 -3.7497583 -59.04272461 -3.74951172 C-65.16886963 -3.63123435 -70.68759086 -2.77565036 -75.9375 0.625 C-76.2675 1.285 -76.5975 1.945 -76.9375 2.625 C-76.17566406 3.04458984 -76.17566406 3.04458984 -75.3984375 3.47265625 C-69.14956263 7.11198225 -63.61556758 11.70360161 -60.9375 18.625 C-60.24878243 25.96833929 -59.81572252 33.31352823 -63.9375 39.625 C-70.46711343 46.2362336 -75.846445 49.67893626 -85.25 49.9375 C-92.15519358 49.86315067 -96.37461456 47.66365887 -101.6875 43.4375 C-106.83145372 37.00755785 -108.69756549 30.86371587 -108.3828125 22.6171875 C-107.14679574 14.31202223 -102.42115758 7.75894676 -95.9375 2.625 C-86.61983451 -3.8848168 -76.65076237 -7.66545602 -65.5 -9.625 C-64.07155762 -9.87648804 -64.07155762 -9.87648804 -62.61425781 -10.13305664 C-41.95825168 -13.5087931 -17.48352641 -12.78303734 0 0 Z " fill="#2B5617" transform="translate(1793.9375,240.375)"/>
<path d="M0 0 C9.27888826 8.28226693 12.3474192 19.6378228 13.19101143 31.74032402 C13.27521672 34.58941576 13.30126979 37.43263407 13.30297852 40.28295898 C13.31141785 41.35103287 13.31985718 42.41910675 13.32855225 43.51954651 C13.3541177 47.01173398 13.36641803 50.50383732 13.37890625 53.99609375 C13.39509817 56.43702346 13.41227993 58.87794679 13.43040466 61.31886292 C13.47590832 67.7172043 13.51081485 74.11555441 13.54260254 80.51397705 C13.59465974 90.77898611 13.65961371 101.04390172 13.73081779 111.30879402 C13.7536398 114.89176211 13.76991224 118.47471822 13.78553772 122.057724 C13.7989414 124.24608495 13.81255594 126.43444463 13.82641602 128.62280273 C13.83033607 130.11818069 13.83033607 130.11818069 13.83433533 131.64376831 C13.84468307 133.01650658 13.84468307 133.01650658 13.85523987 134.41697693 C13.85909478 135.21018058 13.8629497 136.00338423 13.86692142 136.82062435 C13.99974777 138.99586925 14.40095436 140.90916373 15 143 C21.65545792 143.54330269 25.45834744 142.77304004 31 139 C34 142.75 34 142.75 34 145 C20.07343907 154.77922637 4.99579109 157.89902186 -11.87890625 155.609375 C-19.11237871 153.84345684 -25.16581709 149.44176862 -29.19140625 143.1328125 C-30.82778592 139.5754654 -31.5285427 135.86594983 -32 132 C-32.4125 132.56847656 -32.825 133.13695312 -33.25 133.72265625 C-39.90514018 142.6209352 -46.69671952 148.67926948 -57 153 C-58.11955078 153.48146484 -58.11955078 153.48146484 -59.26171875 153.97265625 C-71.1869034 158.32565235 -85.55489034 157.13992373 -97 152 C-100.01424453 150.2934428 -102.49134439 148.38156513 -105 146 C-105.93972656 145.12021484 -105.93972656 145.12021484 -106.8984375 144.22265625 C-115.68352732 135.15955726 -116.63652539 125.12962181 -116.53881836 112.99682617 C-116.29967076 105.98482664 -115.45283684 100.62292535 -111 95 C-110.41863281 94.21753906 -109.83726563 93.43507813 -109.23828125 92.62890625 C-104.6071425 86.9080878 -99.5166189 83.31578302 -93 80 C-91.87464844 79.42378906 -90.74929688 78.84757812 -89.58984375 78.25390625 C-82.65187415 74.81412712 -75.69474581 72.1268085 -68.28076172 69.91162109 C-62.80045501 68.27164562 -57.38958542 66.48029239 -52 64.5625 C-51.22301758 64.29824219 -50.44603516 64.03398437 -49.64550781 63.76171875 C-43.65419618 61.59711584 -37.59407183 58.62864376 -33.79833984 53.3190918 C-32.61335778 49.87684575 -32.67464253 46.46722097 -32.6640625 42.8671875 C-32.6574057 42.07531036 -32.6507489 41.28343323 -32.64389038 40.46755981 C-32.63377692 38.7915478 -32.62907296 37.11549562 -32.62939453 35.43945312 C-32.62505012 32.90424974 -32.5887997 30.37082972 -32.55078125 27.8359375 C-32.48047859 17.74143501 -32.82021269 9.30945956 -39.3125 1.0625 C-45.24252429 -3.48844888 -50.52611242 -4.53175716 -57.8125 -4.4375 C-58.99573853 -4.43049072 -58.99573853 -4.43049072 -60.20288086 -4.42333984 C-66.2754373 -4.26979386 -71.80060349 -3.3679306 -77 0 C-77.33 0.66 -77.66 1.32 -78 2 C-77.50371094 2.268125 -77.00742188 2.53625 -76.49609375 2.8125 C-70.01266183 6.55246832 -64.94419897 11.11160205 -61.5625 17.875 C-60.13248964 25.81950198 -60.33632391 32.20956609 -65 39 C-69.93200706 44.71074501 -75.1626039 48.57845548 -82.734375 49.23828125 C-90.48194008 49.42895967 -95.94188365 48.74107601 -101.75 43.38671875 C-108.06985897 36.53514087 -108.71004259 28.9085541 -108.4375 19.921875 C-107.8038913 14.24202562 -105.91101021 11.05430153 -102 7 C-101.443125 6.39027344 -100.88625 5.78054687 -100.3125 5.15234375 C-92.0537852 -2.94618046 -80.19880429 -7.79134693 -69 -10 C-67.453125 -10.30550781 -67.453125 -10.30550781 -65.875 -10.6171875 C-44.03291376 -14.30809559 -18.18786142 -13.8919555 0 0 Z " fill="#2B5617" transform="translate(1339,241)"/>
<path d="M0 0 C0.834104 0.00749268 1.66820801 0.01498535 2.52758789 0.02270508 C20.39529507 0.33216996 34.39215933 5.42650094 46.9375 18.375 C59.49918073 33.16375161 59.75 50.52294752 59.75 69.25 C31.04 69.25 2.33 69.25 -27.25 69.25 C-26.98587408 105.50109628 -26.98587408 105.50109628 -9.66015625 135.1875 C-0.71174864 142.84513244 9.22067924 144.0491136 20.55371094 143.47216797 C33.00102006 142.2130471 42.17158366 134.5695355 49.8125 125.3125 C51.1349934 123.63282035 52.45114766 121.94802682 53.75 120.25 C56.72 120.745 56.72 120.745 59.75 121.25 C54.91539464 138.0289245 44.7063764 152.89329093 29.75 162.25 C13.0045062 171.3512709 -6.34565468 173.1409979 -24.76831055 168.08862305 C-41.06170882 163.13031009 -55.24281852 152.8324969 -63.47216797 137.75170898 C-76.75198336 111.88918966 -78.28916329 79.28113621 -70.18359375 51.609375 C-63.93426656 32.55202078 -51.96814388 17.7418528 -34.57421875 7.85546875 C-29.01731911 5.17170171 -23.2290199 3.69015205 -17.25 2.25 C-15.9815625 1.89035156 -14.713125 1.53070313 -13.40625 1.16015625 C-8.92335904 0.04480868 -4.60172963 -0.05475464 0 0 Z " fill="#2B5617" transform="translate(2060.25,228.75)"/>
<path d="M0 0 C12.26752209 9.8798322 17.87220837 23.41914414 20.01171875 38.796875 C20.01171875 45.066875 20.01171875 51.336875 20.01171875 57.796875 C-8.69828125 57.796875 -37.40828125 57.796875 -66.98828125 57.796875 C-66.81719853 92.43693998 -66.81719853 92.43693998 -50.98828125 121.796875 C-50.98828125 122.456875 -50.98828125 123.116875 -50.98828125 123.796875 C-50.43269531 124.07402344 -49.87710937 124.35117187 -49.3046875 124.63671875 C-47.70626015 125.43728017 -46.11003224 126.24224298 -44.515625 127.05078125 C-43.66097656 127.48261719 -42.80632812 127.91445313 -41.92578125 128.359375 C-41.06855469 128.79378906 -40.21132812 129.22820312 -39.328125 129.67578125 C-31.62167505 133.36818715 -21.49685108 132.8596774 -13.29296875 130.92578125 C-1.03966818 126.50822017 6.22023294 118.98290728 14.01171875 108.796875 C16.98171875 109.291875 16.98171875 109.291875 20.01171875 109.796875 C15.15564375 126.65031175 4.95662633 141.33261265 -9.98828125 150.796875 C-26.61356667 159.97725197 -46.23922636 161.64213265 -64.50708008 156.63574219 C-79.90938847 151.94540894 -94.20953504 142.27947853 -102.19140625 128.01953125 C-110.97366983 111.39517337 -114.38044091 95.3940462 -114.30078125 76.609375 C-114.29895844 75.92811554 -114.29713562 75.24685608 -114.29525757 74.54495239 C-114.18086994 49.12742571 -108.4320888 26.27391463 -89.98828125 7.796875 C-89.44816406 7.24515625 -88.90804688 6.6934375 -88.3515625 6.125 C-65.80158636 -15.00495245 -25.03131444 -18.45445927 0 0 Z " fill="#2B5617" transform="translate(1181.98828125,240.203125)"/>
<path d="M0 0 C0.00238835 1.1461399 0.00477671 2.2922798 0.00723743 3.47315121 C0.06604166 31.3660314 0.14193029 59.25882527 0.23571491 87.15161037 C0.24468615 89.83732013 0.2535938 92.5230301 0.26245117 95.20874023 C0.26465486 95.87627715 0.26685854 96.54381406 0.269129 97.23157937 C0.30447241 108.0310529 0.32935321 118.83052636 0.35034702 129.63003623 C0.37213266 140.71667557 0.40543071 151.80324447 0.44870156 162.88982159 C0.47263409 169.11474125 0.49136275 175.33957815 0.49761391 181.56454277 C0.5036645 187.42582774 0.52366394 193.28690096 0.55427551 199.14810753 C0.56305604 201.29707621 0.56677829 203.44607255 0.56500816 205.59505844 C0.56335146 208.5348836 0.58008893 211.47406625 0.60127258 214.4138031 C0.59642501 215.25915995 0.59157743 216.10451679 0.58658296 216.97549051 C0.65390895 222.65828841 1.54733577 227.82331656 4 233 C5.94889585 234.63650313 5.94889585 234.63650313 8.3125 235 C9.10140625 235.19207031 9.8903125 235.38414062 10.703125 235.58203125 C11.46109375 235.71996094 12.2190625 235.85789062 13 236 C14.7634375 236.3403125 14.7634375 236.3403125 16.5625 236.6875 C17.366875 236.790625 18.17125 236.89375 19 237 C19 238.98 19 240.96 19 243 C-8.72 243 -36.44 243 -65 243 C-65 241.02 -65 239.04 -65 237 C-64.33613281 236.89042969 -63.67226562 236.78085937 -62.98828125 236.66796875 C-55.97785683 235.5472754 -55.97785683 235.5472754 -50 232 C-46.97407773 225.94815545 -45.85117044 220.98981848 -45.85282898 214.31030273 C-45.84915229 213.51920797 -45.8454756 212.72811321 -45.8416875 211.91304588 C-45.83064491 209.25322199 -45.82680579 206.59343715 -45.82299805 203.93359375 C-45.81673365 202.02983984 -45.81008687 200.12608716 -45.80308533 198.22233582 C-45.78203349 191.96073255 -45.77167949 185.69912903 -45.76171875 179.4375 C-45.75767112 177.28106676 -45.7535542 175.12463366 -45.74936867 172.96820068 C-45.73031178 162.83355189 -45.71608376 152.6989104 -45.7077567 142.56424713 C-45.69799257 130.87385684 -45.6716966 119.18365631 -45.63125581 107.49333286 C-45.60106061 98.4536832 -45.58628445 89.4140878 -45.58297569 80.37438869 C-45.5806284 74.97768679 -45.57171014 69.58118749 -45.54651451 64.18453979 C-45.52317039 59.10212338 -45.51902608 54.02004204 -45.52927589 48.93758583 C-45.52976988 47.07807613 -45.52349012 45.21854959 -45.50971985 43.35909081 C-45.29514712 29.20238685 -45.29514712 29.20238685 -50 16 C-54.32303427 11.87803709 -59.26996517 10.96773922 -65 10 C-65 7.69 -65 5.38 -65 3 C-63.46013428 3.01571045 -63.46013428 3.01571045 -61.88916016 3.03173828 C-57.98636532 3.06864346 -54.0835849 3.09114962 -50.18066406 3.10986328 C-48.50908799 3.11976371 -46.83752845 3.13328753 -45.16601562 3.15087891 C-32.21454773 3.28351442 -19.52492869 2.65384155 -6.74072266 0.43408203 C-4 0 -4 0 0 0 Z " fill="#2A5616" transform="translate(1446,151)"/>
<path d="M0 0 C2.9611534 1.80820937 2.9611534 1.80820937 6.25 2 C10.36837024 -0.01342545 10.95038548 -3.02565996 12.3984375 -7.22265625 C12.61757812 -7.93292969 12.83671875 -8.64320313 13.0625 -9.375 C15.0425 -9.375 17.0225 -9.375 19.0625 -9.375 C18.7325 8.775 18.4025 26.925 18.0625 45.625 C15.7525 45.625 13.4425 45.625 11.0625 45.625 C10.82466797 44.33529297 10.82466797 44.33529297 10.58203125 43.01953125 C7.43718556 27.08680473 2.57540023 12.59042542 -10.9375 2.625 C-18.42691978 -1.78054104 -26.39328088 -2.26481217 -34.9375 -1.375 C-41.11622572 0.69349115 -44.94789444 3.89492267 -47.9375 9.625 C-50.03849712 15.92799136 -49.82351852 22.53628493 -47.125 28.625 C-40.67456722 39.93998568 -29.84557412 47.10187477 -19.44140625 54.4296875 C-8.61079069 62.06321735 1.5523214 70.39870733 11.0625 79.625 C11.74054688 80.27726562 12.41859375 80.92953125 13.1171875 81.6015625 C22.79912508 91.71380842 26.60915296 104.04415466 26.33984375 117.765625 C25.54724938 128.79496631 19.90204529 138.1722577 12.0625 145.75 C-3.05026621 158.5181212 -22.30808951 161.74190964 -41.50976562 160.84716797 C-51.54634742 159.92869558 -61.0501663 155.45999926 -69.89160156 150.86108398 C-73.72947556 148.92008405 -76.64015909 148.08705048 -80.9375 148.625 C-83.50014345 151.71784555 -84.37511722 154.68832052 -84.9375 158.625 C-87.2475 158.625 -89.5575 158.625 -91.9375 158.625 C-91.6075 138.165 -91.2775 117.705 -90.9375 96.625 C-88.6275 96.625 -86.3175 96.625 -83.9375 96.625 C-83.77894531 97.594375 -83.62039063 98.56375 -83.45703125 99.5625 C-80.49866895 116.88506388 -76.62013424 135.47272266 -62.23046875 147.06640625 C-56.01298354 151.29260148 -50.18153979 151.87818535 -42.75 152 C-42.07251709 152.01417969 -41.39503418 152.02835938 -40.69702148 152.04296875 C-36.03272057 151.99718982 -32.97026454 150.88334814 -28.9375 148.625 C-28.2775 148.625 -27.6175 148.625 -26.9375 148.625 C-26.669375 148.08875 -26.40125 147.5525 -26.125 147 C-25.2698835 145.289767 -24.35283748 143.61000213 -23.3984375 141.953125 C-20.33581092 134.97623235 -20.78765585 126.50290578 -22.93359375 119.265625 C-28.38766221 107.33774725 -38.90891914 99.59136564 -48.9375 91.625 C-52.62230628 88.64671999 -56.28669664 85.64485977 -59.9375 82.625 C-60.50436523 82.15658691 -61.07123047 81.68817383 -61.65527344 81.20556641 C-74.66497758 70.4087081 -88.69973077 58.41637319 -90.9375 40.625 C-91.77468445 28.39661732 -90.5733832 18.13947337 -82.61328125 8.4609375 C-62.65338352 -13.40654952 -24.59630028 -15.56864721 0 0 Z " fill="#2B5617" transform="translate(1936.9375,238.375)"/>
<path d="M0 0 C6.2397562 -0.12524988 12.47875277 -0.21510471 18.71948242 -0.2746582 C20.83452122 -0.29952969 22.94947662 -0.33343963 25.06420898 -0.37719727 C46.820858 -0.81552748 64.32994985 2.22590284 80.73828125 17.578125 C88.76429431 26.17247404 92.59347732 36.65779613 92.5 48.3125 C92.49500488 49.13919189 92.49000977 49.96588379 92.48486328 50.81762695 C92.18194118 61.52540094 88.02088338 70.02801173 81 78 C80.47664063 78.60457031 79.95328125 79.20914063 79.4140625 79.83203125 C69.80414319 90.18638093 56.10218285 95.74898677 42.10766602 96.40136719 C35.56930048 96.54979457 29.03780442 96.43846468 22.5 96.3125 C20.21226422 96.28736183 17.92450153 96.26455851 15.63671875 96.24414062 C10.0905484 96.18964018 4.5454039 96.1064604 -1 96 C-0.28118738 91.11534152 1.4299796 89.39151938 5 86 C6.14938715 82.55183854 6.14109284 79.85927313 6.16113281 76.22119141 C6.16609772 75.53628128 6.17106262 74.85137115 6.17617798 74.14570618 C6.19077715 71.88098138 6.19759766 69.61632661 6.203125 67.3515625 C6.20887809 65.77599079 6.21463581 64.20041909 6.22039795 62.62484741 C6.2309014 59.32118402 6.23674842 56.01754492 6.24023438 52.71386719 C6.2457192 48.4847611 6.26974952 44.25597695 6.29820633 40.02697182 C6.31684765 36.7721361 6.32203909 33.51737772 6.32357025 30.26249313 C6.3265937 28.70359918 6.3346119 27.14470649 6.34775543 25.58586502 C6.3648485 23.40286129 6.36292826 21.22064152 6.35644531 19.03759766 C6.36009094 17.79644196 6.36373657 16.55528625 6.36749268 15.27651978 C5.85514088 10.70845381 4.3273452 8.09980031 0.8125 5.1875 C0.214375 4.795625 -0.38375 4.40375 -1 4 C-0.67 2.68 -0.34 1.36 0 0 Z " fill="#6EA654" transform="translate(2346,491)"/>
<path d="M0 0 C14.52 0 29.04 0 44 0 C44.495 1.98 44.495 1.98 45 4 C44.03126968 5.35622245 43.02881144 6.68876974 42 8 C40.82017313 13.42720359 41.88880045 18.26968224 44.10546875 23.265625 C46.27063717 28.27628909 48.33804517 33.3102502 50.33203125 38.390625 C50.61621918 39.11290283 50.9004071 39.83518066 51.19320679 40.5793457 C52.06736025 42.80248396 52.93996283 45.02622696 53.8125 47.25 C54.41590406 48.78520011 55.01941898 50.32035664 55.62304688 51.85546875 C57.08330652 55.56981274 58.5420762 59.28473857 60 63 C63.87925036 59.12074964 65.23363146 53.23612288 67.1875 48.1875 C67.66380859 46.99833984 68.14011719 45.80917969 68.63085938 44.58398438 C69.07623047 43.43607422 69.52160156 42.28816406 69.98046875 41.10546875 C70.59764771 39.52995239 70.59764771 39.52995239 71.22729492 37.92260742 C72.78160792 32.0437193 69.90838201 26.8915752 67.6875 21.5 C67.39166016 20.75363281 67.09582031 20.00726563 66.79101562 19.23828125 C63.90993556 12.20670356 60.57428792 8.03422213 54 4 C54.33 2.68 54.66 1.36 55 0 C69.52 0 84.04 0 99 0 C98 6 98 6 96 9 C95.34976723 15.0713595 97.02661464 19.36886755 99.375 24.8125 C100.10340544 26.56694432 100.8298636 28.32219799 101.5546875 30.078125 C102.1420166 31.49061523 102.1420166 31.49061523 102.74121094 32.93164062 C105.07145434 38.6117219 107.28556089 44.33650235 109.5 50.0625 C109.94520996 51.19856689 110.39041992 52.33463379 110.84912109 53.50512695 C111.25984863 54.56691162 111.67057617 55.62869629 112.09375 56.72265625 C112.46177734 57.66890869 112.82980469 58.61516113 113.20898438 59.59008789 C114 62 114 62 114 65 C114.66 65 115.32 65 116 65 C116.09224854 64.36642578 116.18449707 63.73285156 116.27954102 63.08007812 C117.28319962 58.78927602 118.90772613 54.81070971 120.52734375 50.71875 C120.87632217 49.82764526 121.2253006 48.93654053 121.58485413 48.01843262 C122.69853048 45.17741738 123.81794679 42.33870379 124.9375 39.5 C125.68722461 37.58999116 126.43657765 35.67983642 127.18554688 33.76953125 C128.56145897 30.26277776 129.93900728 26.75668221 131.32006836 23.25195312 C131.75982498 22.13336914 131.75982498 22.13336914 132.20846558 20.9921875 C132.85753639 19.35856207 133.52840968 17.73361489 134.20532227 16.11132812 C135.29651972 13.21219585 135.39180535 11.06914193 135 8 C133.68671343 6.64691687 132.35500919 5.31129922 131 4 C131.33 2.68 131.66 1.36 132 0 C138.93 0 145.86 0 153 0 C153.33 1.32 153.66 2.64 154 4 C153.30051743 4.29050232 152.60103485 4.58100464 151.88035583 4.88031006 C141.26114417 10.28995975 138.81715669 18.87397682 134.84765625 29.515625 C134.13655449 31.33824832 133.42192942 33.15950054 132.70396423 34.97943115 C130.8319493 39.74742744 129.00085517 44.53002749 127.18029785 49.31787109 C124.25260882 56.99757956 121.2644807 64.65390719 118.27319145 72.30901337 C117.23636869 74.98029611 116.21811151 77.65809054 115.20240784 80.33746338 C114.57162728 81.97285492 113.9404584 83.60809675 113.30883789 85.24316406 C113.03192612 85.98814148 112.75501434 86.7331189 112.4697113 87.50067139 C110.96133314 91.3607645 109.78709488 94.08173757 106 96 C102.5 96.0625 102.5 96.0625 99 95 C94.45400052 89.54103582 92.27569685 82.72439655 89.6875 76.1875 C88.71656656 73.76415431 87.74521231 71.34097717 86.7734375 68.91796875 C86.30260742 67.73895996 85.83177734 66.55995117 85.34667969 65.34521484 C84.16246812 62.40357836 82.95525502 59.47405015 81.7265625 56.55078125 C81.39825439 55.76872314 81.06994629 54.98666504 80.73168945 54.1809082 C80.13497361 52.76511469 79.53475124 51.35079206 78.93041992 49.93823242 C77.74372463 47.10586837 77 45.10792112 77 42 C76.34 42 75.68 42 75 42 C74.82540253 42.61360886 74.65080505 43.22721771 74.47091675 43.85942078 C72.73425079 49.82205453 70.71687343 55.57923499 68.3828125 61.33203125 C68.04377899 62.17166916 67.70474548 63.01130707 67.35543823 63.87638855 C66.64364785 65.63274128 65.92927622 67.38805 65.21240234 69.14233398 C64.1225474 71.81852247 63.05143907 74.50175499 61.98046875 77.18554688 C61.28238953 78.90150569 60.58320889 80.61701692 59.8828125 82.33203125 C59.56804962 83.12793167 59.25328674 83.92383209 58.9289856 84.74385071 C56.98470464 89.43208013 54.98975303 92.68005657 51 96 C48.5625 96.75 48.5625 96.75 46 96 C41.24629259 91.64885789 38.61920919 86.6683394 36.37109375 80.7265625 C36.05944778 79.93731384 35.74780182 79.14806519 35.42671204 78.3348999 C34.4173202 75.76980631 33.42756517 73.197607 32.4375 70.625 C31.73804879 68.8401102 31.03718592 67.055773 30.33496094 65.27197266 C28.20651297 59.85445397 26.10188917 54.42786609 24 49 C21.86651149 43.5004817 19.72752592 38.0031619 17.58035278 32.50897217 C16.76732671 30.41952894 15.96404544 28.32653695 15.16186523 26.23291016 C14.66550372 24.95463533 14.16885679 23.67647129 13.671875 22.3984375 C13.2500293 21.30192871 12.82818359 20.20541992 12.39355469 19.07568359 C10.05482974 13.91393572 7.40920936 9.88644655 2.75 6.625 C2.04359375 6.12226563 1.3371875 5.61953125 0.609375 5.1015625 C0.07828125 4.73804688 -0.4528125 4.37453125 -1 4 C-0.67 2.68 -0.34 1.36 0 0 Z " fill="#6EA654" transform="translate(1432,491)"/>
<path d="M0 0 C4.35403865 -0.08755672 8.70784877 -0.14057969 13.0625 -0.1875 C14.29162109 -0.21263672 15.52074219 -0.23777344 16.78710938 -0.26367188 C28.62928325 -0.35943069 28.62928325 -0.35943069 34 3 C38.25968904 7.36052278 39.88002091 12.40869913 41.85546875 18.04296875 C42.20257401 19.00777664 42.54967926 19.97258453 42.90730286 20.96662903 C44.00985639 24.03706609 45.09900619 27.11205396 46.1875 30.1875 C47.28962889 33.27254866 48.39443401 36.35662743 49.49983215 39.44050598 C50.18571437 41.35714961 50.8691268 43.27467919 51.54985046 45.19316101 C51.8571962 46.05778458 52.16454193 46.92240814 52.48120117 47.81323242 C52.88613045 48.95643196 52.88613045 48.95643196 53.29924011 50.12272644 C53.98097662 52.05043655 53.98097662 52.05043655 55 54 C55.19156677 53.44956024 55.38313354 52.89912048 55.58050537 52.33200073 C57.58226576 46.58558705 59.59583796 40.84341106 61.61621094 35.10351562 C62.36792655 32.96297143 63.11665943 30.82137726 63.86230469 28.67871094 C64.93676252 25.59286804 66.02201385 22.51100366 67.109375 19.4296875 C67.43871033 18.47633514 67.76804565 17.52298279 68.10736084 16.54074097 C70.22681368 10.57715372 72.23197258 5.23873748 77.2956543 1.14331055 C80.77298964 -0.32679521 83.49828375 -0.33952736 87.26953125 -0.29296875 C88.29103523 -0.28660149 88.29103523 -0.28660149 89.33317566 -0.28010559 C91.49336459 -0.2634061 93.65259642 -0.22577312 95.8125 -0.1875 C97.28318958 -0.17244174 98.75389389 -0.15875534 100.22460938 -0.14648438 C103.81671357 -0.11353214 107.40826326 -0.06181173 111 0 C110.37975568 3.46834112 109.90971767 5.57463753 107.5 8.1875 C103.85840496 12.28429442 103.86908098 14.15721852 103.83886719 19.57348633 C103.83390228 20.24849686 103.82893738 20.92350739 103.82382202 21.61897278 C103.80919303 23.85666924 103.80239663 26.09429478 103.796875 28.33203125 C103.79112342 29.88661196 103.78536568 31.44119265 103.77960205 32.99577332 C103.76908946 36.25833466 103.76324873 39.52087136 103.75976562 42.78344727 C103.75428539 46.95989704 103.73026877 51.13602005 103.70179367 55.31236744 C103.6831488 58.52517135 103.67796068 61.73789691 103.67642975 64.95075035 C103.67340601 66.49010692 103.66538685 68.0294622 103.65224457 69.56876564 C103.63514751 71.72553799 103.63707293 73.88151705 103.64355469 76.03833008 C103.63990906 77.26473709 103.63626343 78.4911441 103.63250732 79.75471497 C104.15527476 84.37121335 105.85247588 86.91804868 109.1875 90.0625 C111 92 111 92 111 96 C96.81 96 82.62 96 68 96 C68 90.74144069 68.03606155 90.64792424 71 87 C76.15151915 75.77926738 75.29137588 62.31879492 75.20581055 50.23852539 C75.18736237 47.54238553 75.18530294 44.84658759 75.18554688 42.15039062 C75.18063642 40.41405956 75.17481017 38.67773078 75.16796875 36.94140625 C75.16685593 36.14650284 75.1657431 35.35159943 75.16459656 34.53260803 C75.12566656 29.92488825 74.75670619 25.54665311 74 21 C70.50694633 29.13471306 67.38127008 37.33507771 64.49609375 45.703125 C63.66479564 48.08857028 62.83341294 50.47398608 62.00195312 52.859375 C60.71444169 56.56709289 59.42870235 60.27541432 58.14477539 63.984375 C56.89145751 67.60056782 55.63159649 71.21443151 54.37109375 74.828125 C53.99182236 75.93037415 53.61255096 77.03262329 53.2217865 78.16827393 C51.18273912 84.0048598 49.18330529 89.68308995 46 95 C43.87644958 95.70635986 43.87644958 95.70635986 42 96 C39.08499158 90.41207236 36.72213198 84.85499496 34.64453125 78.91015625 C34.33859543 78.04853378 34.03265961 77.18691132 33.717453 76.29917908 C32.74430138 73.55530197 31.77816272 70.80902049 30.8125 68.0625 C30.18473299 66.28693669 29.55648078 64.51154486 28.92773438 62.73632812 C27.9719688 60.03778793 27.01652338 57.33914106 26.0630188 54.63980103 C22.09277616 43.40834182 18.04551259 32.20452002 14 21 C13.88403807 29.25811948 13.79525146 37.51589759 13.74093914 45.77463055 C13.7148688 49.60973093 13.67951966 53.44427343 13.62280273 57.27905273 C13.56838836 60.98141252 13.53856017 64.68323649 13.52561378 68.38596535 C13.51639053 69.79699958 13.49837884 71.20800518 13.47134972 72.61881065 C13.43494595 74.59803933 13.43295667 76.5778097 13.43237305 78.55737305 C13.41571846 80.24614815 13.41571846 80.24614815 13.39872742 81.96903992 C14.1889285 85.9523713 15.96667652 87.39874902 19 90 C20 91 21 92 22 93 C21.67 93.99 21.34 94.98 21 96 C14.07 96 7.14 96 0 96 C0 94.68 0 93.36 0 92 C1.94125344 90.26526288 3.94272868 88.5954349 6 87 C7.47984524 84.04030952 7.16006912 81.36257713 7.19287109 78.05932617 C7.20104858 77.34530136 7.20922607 76.63127655 7.21765137 75.89561462 C7.24250302 73.52807455 7.2590208 71.16059443 7.2734375 68.79296875 C7.27876118 67.98463404 7.28408485 67.17629932 7.28956985 66.34346962 C7.31630064 62.06484551 7.3356756 57.78625057 7.35009766 53.50756836 C7.36674436 49.08878231 7.41152169 44.67074228 7.4624691 40.25223827 C7.49613005 36.85414272 7.50767375 33.4562245 7.51332474 30.05797768 C7.52004062 28.42926648 7.53527165 26.80056709 7.55921555 25.17201805 C7.59084751 22.89034676 7.59090812 20.61069054 7.58349609 18.32885742 C7.59158295 17.03139084 7.5996698 15.73392426 7.60800171 14.3971405 C6.84110473 10.11219075 5.32348409 8.71660746 2 6 C1.01 5.34 0.02 4.68 -1 4 C-0.67 2.68 -0.34 1.36 0 0 Z " fill="#6EA654" transform="translate(1762,491)"/>
<path d="M0 0 C13.53 0 27.06 0 41 0 C41.66 1.32 42.32 2.64 43 4 C42.401875 4.598125 41.80375 5.19625 41.1875 5.8125 C35.12483699 14.6466661 34.86733073 26.48675446 34.4375 36.875 C34.293125 40.21625 34.14875 43.5575 34 47 C43.57 47 53.14 47 63 47 C62.9948706 42.30147171 62.97138964 37.61012446 62.90234375 32.91308594 C62.88427784 31.31876967 62.87659807 29.72429805 62.87988281 28.12988281 C63.10469775 16.28898654 63.10469775 16.28898654 57.47705078 6.23242188 C56.00061341 4.90462322 56.00061341 4.90462322 54 4 C54.33 2.68 54.66 1.36 55 0 C60.80240568 -0.02467332 66.60478098 -0.04284724 72.40722656 -0.05493164 C74.38216687 -0.0599681 76.35710343 -0.06679751 78.33203125 -0.07543945 C81.16667605 -0.08753508 84.00127166 -0.0932351 86.8359375 -0.09765625 C87.72243988 -0.10281754 88.60894226 -0.10797882 89.52230835 -0.11329651 C95.77225659 -0.11387171 95.77225659 -0.11387171 98 1 C97.61464065 3.77458731 97.30455573 5.60965392 95.5612793 7.84399414 C88.68083546 17.3453545 90.57709661 32.75843004 90.66381836 43.8293457 C90.68747444 47.05901005 90.68435318 50.28784857 90.67773438 53.51757812 C90.25541584 72.04428465 90.25541584 72.04428465 96.09765625 89.28125 C97.09464093 91.18026843 97.63754794 92.8879337 98 95 C97 96 97 96 93.03100586 96.11352539 C91.25894393 96.1133662 89.4868774 96.10766785 87.71484375 96.09765625 C86.78402481 96.0962413 85.85320587 96.09482635 84.8941803 96.09336853 C81.90858809 96.08775172 78.92306971 96.0751964 75.9375 96.0625 C73.91862087 96.05748716 71.89974057 96.05292388 69.88085938 96.04882812 C64.92054428 96.03777683 59.96028468 96.02050095 55 96 C55 91.6504455 55.17134666 91.32990263 57.9375 88.375 C61.7763463 84.21851866 62.14768451 81.97872666 62.31640625 76.2421875 C62.33718735 75.57913605 62.35796844 74.91608459 62.37937927 74.23294067 C62.44479231 72.11373306 62.50372105 69.994401 62.5625 67.875 C62.60569309 66.43878919 62.64930764 65.00259098 62.69335938 63.56640625 C62.80125909 60.04439656 62.90039243 56.52229312 63 53 C53.43 53 43.86 53 34 53 C34.28875 56.63 34.5775 60.26 34.875 64 C34.96120605 65.12792969 35.04741211 66.25585938 35.13623047 67.41796875 C36.22034737 80.79459917 36.22034737 80.79459917 43 92 C42.505 93.98 42.505 93.98 42 96 C27.81 96 13.62 96 -1 96 C0.09558553 90.52207236 1.13896958 89.6679789 5 86 C6.14938715 82.55183854 6.14109284 79.85927313 6.16113281 76.22119141 C6.16609772 75.53628128 6.17106262 74.85137115 6.17617798 74.14570618 C6.19077715 71.88098138 6.19759766 69.61632661 6.203125 67.3515625 C6.20887809 65.77599079 6.21463581 64.20041909 6.22039795 62.62484741 C6.2309014 59.32118402 6.23674842 56.01754492 6.24023438 52.71386719 C6.2457192 48.4847611 6.26974952 44.25597695 6.29820633 40.02697182 C6.31684765 36.7721361 6.32203909 33.51737772 6.32357025 30.26249313 C6.3265937 28.70359918 6.3346119 27.14470649 6.34775543 25.58586502 C6.3648485 23.40286129 6.36292826 21.22064152 6.35644531 19.03759766 C6.36009094 17.79644196 6.36373657 16.55528625 6.36749268 15.27651978 C5.85514088 10.70845381 4.3273452 8.09980031 0.8125 5.1875 C0.214375 4.795625 -0.38375 4.40375 -1 4 C-0.67 2.68 -0.34 1.36 0 0 Z " fill="#6FA755" transform="translate(1109,491)"/>
<path d="M0 0 C6.974252 -0.05089094 13.94845574 -0.08581364 20.92285156 -0.10986328 C23.29331248 -0.1198939 25.6637611 -0.1335216 28.03417969 -0.15087891 C31.44990073 -0.17525643 34.86545755 -0.18651279 38.28125 -0.1953125 C39.33364868 -0.20563507 40.38604736 -0.21595764 41.47033691 -0.22659302 C52.0479185 -0.2281902 62.21284197 1.78078642 70.30859375 9.08203125 C76.54871647 15.80304416 79.72065594 21.86934665 79.40234375 31.1640625 C78.21823792 39.51028421 73.63172935 45.05954891 67.29296875 50.3046875 C64.30629462 52.5128929 61.30688549 54.31137762 58 56 C58.43715332 56.40814941 58.87430664 56.81629883 59.32470703 57.23681641 C63.85103532 61.59201698 67.39544156 66.1641605 70.875 71.375 C76.60877722 79.72823275 82.81131056 86.92452074 91 93 C90.505 94.485 90.505 94.485 90 96 C76.8 96 63.6 96 50 96 C49.67 95.01 49.34 94.02 49 93 C49.639375 92.113125 50.27875 91.22625 50.9375 90.3125 C53.70677412 85.86487792 53.5640761 81.9420235 52.60375977 76.93334961 C52.07470787 74.86591282 51.46391211 72.84451687 50.8125 70.8125 C50.61591797 70.12736328 50.41933594 69.44222656 50.21679688 68.73632812 C48.75485558 64.06261425 47.09503322 60.9424393 43 58 C39.99820607 57.32323306 37.07218731 57.0736254 34 57 C34.22220765 60.98122042 34.48284141 64.95906329 34.75 68.9375 C34.811875 70.05447266 34.87375 71.17144531 34.9375 72.32226562 C35.37434253 78.52906986 36.18990304 83.54965366 39.07128906 89.09985352 C40.0334547 91.06844845 40.62758225 92.84177532 41 95 C40 96 40 96 36.12280273 96.11352539 C34.39305833 96.11336621 32.66330919 96.10766849 30.93359375 96.09765625 C30.02497086 96.0962413 29.11634796 96.09482635 28.18019104 96.09336853 C25.26592779 96.08775193 22.35174019 96.07519665 19.4375 96.0625 C17.46679798 96.05748714 15.49609476 96.05292386 13.52539062 96.04882812 C8.68356441 96.03777711 3.84179505 96.02050138 -1 96 C-0.28118738 91.11534152 1.4299796 89.39151938 5 86 C6.14938715 82.55183854 6.14109284 79.85927313 6.16113281 76.22119141 C6.16609772 75.53628128 6.17106262 74.85137115 6.17617798 74.14570618 C6.19077715 71.88098138 6.19759766 69.61632661 6.203125 67.3515625 C6.20887809 65.77599079 6.21463581 64.20041909 6.22039795 62.62484741 C6.2309014 59.32118402 6.23674842 56.01754492 6.24023438 52.71386719 C6.2457192 48.4847611 6.26974952 44.25597695 6.29820633 40.02697182 C6.31684765 36.7721361 6.32203909 33.51737772 6.32357025 30.26249313 C6.3265937 28.70359918 6.3346119 27.14470649 6.34775543 25.58586502 C6.3648485 23.40286129 6.36292826 21.22064152 6.35644531 19.03759766 C6.36009094 17.79644196 6.36373657 16.55528625 6.36749268 15.27651978 C5.85514088 10.70845381 4.3273452 8.09980031 0.8125 5.1875 C0.214375 4.795625 -0.38375 4.40375 -1 4 C-0.67 2.68 -0.34 1.36 0 0 Z " fill="#6EA654" transform="translate(1667,491)"/>
<path d="M0 0 C6.974252 -0.05089094 13.94845574 -0.08581364 20.92285156 -0.10986328 C23.29331248 -0.1198939 25.6637611 -0.1335216 28.03417969 -0.15087891 C31.44990073 -0.17525643 34.86545755 -0.18651279 38.28125 -0.1953125 C39.33364868 -0.20563507 40.38604736 -0.21595764 41.47033691 -0.22659302 C52.0479185 -0.2281902 62.21284197 1.78078642 70.30859375 9.08203125 C76.54871647 15.80304416 79.72065594 21.86934665 79.40234375 31.1640625 C78.21823792 39.51028421 73.63172935 45.05954891 67.29296875 50.3046875 C64.30629462 52.5128929 61.30688549 54.31137762 58 56 C58.43715332 56.40814941 58.87430664 56.81629883 59.32470703 57.23681641 C63.85103532 61.59201698 67.39544156 66.1641605 70.875 71.375 C76.60877722 79.72823275 82.81131056 86.92452074 91 93 C90.505 94.485 90.505 94.485 90 96 C76.8 96 63.6 96 50 96 C49.67 95.01 49.34 94.02 49 93 C49.639375 92.113125 50.27875 91.22625 50.9375 90.3125 C53.70677412 85.86487792 53.5640761 81.9420235 52.60375977 76.93334961 C52.07470787 74.86591282 51.46391211 72.84451687 50.8125 70.8125 C50.61591797 70.12736328 50.41933594 69.44222656 50.21679688 68.73632812 C48.75485558 64.06261425 47.09503322 60.9424393 43 58 C39.99820607 57.32323306 37.07218731 57.0736254 34 57 C34.22220765 60.98122042 34.48284141 64.95906329 34.75 68.9375 C34.811875 70.05447266 34.87375 71.17144531 34.9375 72.32226562 C35.37434253 78.52906986 36.18990304 83.54965366 39.07128906 89.09985352 C40.0334547 91.06844845 40.62758225 92.84177532 41 95 C40 96 40 96 36.12280273 96.11352539 C34.39305833 96.11336621 32.66330919 96.10766849 30.93359375 96.09765625 C30.02497086 96.0962413 29.11634796 96.09482635 28.18019104 96.09336853 C25.26592779 96.08775193 22.35174019 96.07519665 19.4375 96.0625 C17.46679798 96.05748714 15.49609476 96.05292386 13.52539062 96.04882812 C8.68356441 96.03777711 3.84179505 96.02050138 -1 96 C-0.28118738 91.11534152 1.4299796 89.39151938 5 86 C6.14938715 82.55183854 6.14109284 79.85927313 6.16113281 76.22119141 C6.16609772 75.53628128 6.17106262 74.85137115 6.17617798 74.14570618 C6.19077715 71.88098138 6.19759766 69.61632661 6.203125 67.3515625 C6.20887809 65.77599079 6.21463581 64.20041909 6.22039795 62.62484741 C6.2309014 59.32118402 6.23674842 56.01754492 6.24023438 52.71386719 C6.2457192 48.4847611 6.26974952 44.25597695 6.29820633 40.02697182 C6.31684765 36.7721361 6.32203909 33.51737772 6.32357025 30.26249313 C6.3265937 28.70359918 6.3346119 27.14470649 6.34775543 25.58586502 C6.3648485 23.40286129 6.36292826 21.22064152 6.35644531 19.03759766 C6.36009094 17.79644196 6.36373657 16.55528625 6.36749268 15.27651978 C5.85514088 10.70845381 4.3273452 8.09980031 0.8125 5.1875 C0.214375 4.795625 -0.38375 4.40375 -1 4 C-0.67 2.68 -0.34 1.36 0 0 Z " fill="#6EA654" transform="translate(854,491)"/>
<path d="M0 0 C6.88260037 -0.10231073 13.76500112 -0.17184349 20.64819336 -0.21972656 C22.98453093 -0.23971041 25.32081933 -0.26690688 27.65698242 -0.30175781 C58.82558209 -0.75473169 58.82558209 -0.75473169 69 8 C75.02774447 14.08493369 79.23623743 18.82010809 79.4375 27.6875 C79.3041522 35.42167226 76.53828327 40.91289873 71.6875 46.8125 C68.30961085 49.56194465 64.73389565 51.77372331 61 54 C60.01 54.66 59.02 55.32 58 56 C58.70640625 56.49242187 59.4128125 56.98484375 60.140625 57.4921875 C63.73415567 60.64389063 66.09968399 64.17690439 68.75 68.125 C75.23280573 77.53410688 82.0687058 85.77895363 91 93 C90.505 94.485 90.505 94.485 90 96 C76.8 96 63.6 96 50 96 C51 90 51 90 53 87 C53.85564716 78.15831267 51.7069179 68.78851853 46.875 61.25 C44.20895621 58.05074745 42.38008392 57.83800839 38.375 57.4375 C37.55773438 57.35371094 36.74046875 57.26992188 35.8984375 57.18359375 C34.95871094 57.09271484 34.95871094 57.09271484 34 57 C33.8505263 74.32681205 33.8505263 74.32681205 40.16796875 89.609375 C40.77253906 90.39828125 41.37710938 91.1871875 42 92 C41.505 93.98 41.505 93.98 41 96 C27.47 96 13.94 96 0 96 C0 91.54996986 0.75237041 90.76578662 3.7109375 87.66015625 C6.89241575 83.5627979 7.25977494 79.46998822 7.30639648 74.40893555 C7.32238388 73.09374435 7.33837128 71.77855316 7.35484314 70.42350769 C7.36122086 68.99458201 7.36661328 67.56565164 7.37109375 66.13671875 C7.38006887 64.66087253 7.38919087 63.18502719 7.39845276 61.70918274 C7.41491709 58.61835526 7.42263805 55.52763576 7.42553711 52.43676758 C7.43091526 48.49245156 7.46858111 44.54916242 7.51428127 40.60513592 C7.5441496 37.55689364 7.55126278 34.50889563 7.55226326 31.46051979 C7.55644704 30.00734573 7.56880693 28.55416969 7.58978081 27.10114098 C7.77813687 15.60042407 7.77813687 15.60042407 2 6 C1.01 5.34 0.02 4.68 -1 4 C-0.67 2.68 -0.34 1.36 0 0 Z " fill="#6DA653" transform="translate(2067,491)"/>
<path d="M0 0 C1.58554688 0.01703979 1.58554688 0.01703979 3.203125 0.03442383 C14.03352299 0.3043481 23.48294226 2.59052872 32.125 9.5 C36.16014871 13.95990121 38.6123573 17.30017519 38.44140625 23.5 C37.93059018 26.72886205 36.4899686 28.32678561 34.125 30.5 C29.60283375 33.29310268 24.2687392 33.02098966 19.125 32.5 C13.84402596 30.70646165 11.32604749 27.89000798 8.125 23.5 C6.85624355 19.69373065 6.80536777 16.08404259 6.6015625 12.09375 C6.06453612 9.1709179 5.52173946 8.20952269 3.125 6.5 C-0.95294425 6.07521414 -2.40576119 6.18717413 -5.875 8.5 C-6.83208808 12.90705676 -6.69264158 17.44282871 -5.01953125 21.65234375 C-0.41807197 28.57577017 7.35675771 32.9138307 14.125 37.5 C37.09364908 53.25742298 37.09364908 53.25742298 40.125 63.5 C41.26096378 70.07777119 40.04113935 75.39328857 36.78515625 81.1796875 C31.14686218 89.06003262 22.33093259 93.17805923 13.125 95.5 C3.34542835 96.79065162 -4.47913934 95.12069362 -13.4375 91.49609375 C-18.13289765 90.13549557 -21.73120979 90.57198343 -26.203125 92.5078125 C-26.83734375 92.87648438 -27.4715625 93.24515625 -28.125 93.625 C-30.078125 94.7578125 -30.078125 94.7578125 -31.875 95.5 C-32.865 95.17 -33.855 94.84 -34.875 94.5 C-34.875 83.28 -34.875 72.06 -34.875 60.5 C-32.895 60.005 -32.895 60.005 -30.875 59.5 C-30.12734375 60.45261719 -29.3796875 61.40523437 -28.609375 62.38671875 C-27.61459527 63.6536552 -26.61980293 64.92058176 -25.625 66.1875 C-24.88830078 67.12625977 -24.88830078 67.12625977 -24.13671875 68.08398438 C-23.16578775 69.32030318 -22.19323031 70.55534653 -21.21899414 71.7890625 C-20.0639881 73.25941351 -18.92669572 74.74364858 -17.79296875 76.23046875 C-15.83520813 78.54708569 -13.84980908 80.2938191 -11.4375 82.125 C-10.32568359 82.97964844 -10.32568359 82.97964844 -9.19140625 83.8515625 C-8.42699219 84.39554688 -7.66257812 84.93953125 -6.875 85.5 C-5.70710938 86.34111328 -5.70710938 86.34111328 -4.515625 87.19921875 C-1.18207876 88.84133546 1.24212552 88.79948104 4.9375 88.6875 C6.09894531 88.66042969 7.26039062 88.63335938 8.45703125 88.60546875 C9.33746094 88.57066406 10.21789063 88.53585937 11.125 88.5 C12.70666563 83.75500311 13.07539067 79.43927069 10.87109375 74.94140625 C9.05822158 72.40662973 7.51457813 71.03794474 4.9375 69.3125 C3.61685547 68.42304687 3.61685547 68.42304687 2.26953125 67.515625 C-0.73046214 65.59264787 -3.75376367 63.7149254 -6.78881836 61.84814453 C-29.10548801 48.09512143 -29.10548801 48.09512143 -34.25 35 C-35.72435432 26.74361582 -35.26827611 19.85370475 -30.875 12.5 C-22.56460575 2.66631556 -12.51490925 -0.22788758 0 0 Z " fill="#6EA653" transform="translate(1063.875,491.5)"/>
<path d="M0 0 C3.49971199 -0.1173794 6.99890955 -0.18763961 10.5 -0.25 C11.48226562 -0.28351563 12.46453125 -0.31703125 13.4765625 -0.3515625 C21.30671859 -0.45596458 26.52435715 0.92173339 32.42578125 6.1484375 C33.04839844 6.88320313 33.67101563 7.61796875 34.3125 8.375 C34.94800781 9.10460937 35.58351563 9.83421875 36.23828125 10.5859375 C39.82276526 15.49771381 41.69078991 20.79209598 43.30859375 26.59765625 C43.74292172 28.11356014 44.17767324 29.62934272 44.61279297 31.14501953 C44.95126251 32.33360565 44.95126251 32.33360565 45.29656982 33.54620361 C47.23862569 40.3207348 49.27097727 47.06941731 51.28442383 53.82299805 C51.80671345 55.57800262 52.32719758 57.33354544 52.84594727 59.08959961 C56.70650595 76.28108237 56.70650595 76.28108237 66.25 90.125 C66.95640625 90.68445313 67.6628125 91.24390625 68.390625 91.8203125 C69.18726562 92.40425781 69.18726562 92.40425781 70 93 C69.505 94.485 69.505 94.485 69 96 C54.48 96 39.96 96 25 96 C24 92 24 92 24.9296875 89.3671875 C26.35530887 84.88220349 26.21567922 80.79297359 26.125 76.125 C26.08375 73.11375 26.0425 70.1025 26 67 C15.11 67 4.22 67 -7 67 C-7 76.04013444 -6.30776755 82.52333699 -0.25 89.375 C2 92 2 92 2 96 C-8.23 96 -18.46 96 -29 96 C-29 94.68 -29 93.36 -29 92 C-27.42578125 90.6484375 -27.42578125 90.6484375 -25.3125 89.375 C-17.08456361 83.62527961 -14.82126148 73.05334463 -12.08203125 63.859375 C-11.73871262 62.73356018 -11.39539398 61.60774536 -11.04167175 60.44781494 C-9.95690345 56.88435563 -8.88439464 53.31735034 -7.8125 49.75 C-6.727059 46.16927296 -5.6391564 42.58929975 -4.55119324 39.00933838 C-3.87798132 36.79068934 -3.20675633 34.57143614 -2.53779602 32.35150146 C-1.33251461 28.35421733 -0.12274556 24.36781177 1.19897461 20.40722656 C2.56512774 16.30168867 3.04276617 12.13993753 1.1015625 8.15625 C-0.08840166 6.31457487 -0.08840166 6.31457487 -2 4 C-1.34 2.68 -0.68 1.36 0 0 Z " fill="#6EA654" transform="translate(2272,491)"/>
<path d="M0 0 C3.49971199 -0.1173794 6.99890955 -0.18763961 10.5 -0.25 C11.48226563 -0.28351563 12.46453125 -0.31703125 13.4765625 -0.3515625 C21.30671859 -0.45596458 26.52435715 0.92173339 32.42578125 6.1484375 C33.04839844 6.88320313 33.67101563 7.61796875 34.3125 8.375 C34.94800781 9.10460937 35.58351563 9.83421875 36.23828125 10.5859375 C39.82276526 15.49771381 41.69078991 20.79209598 43.30859375 26.59765625 C43.74292172 28.11356014 44.17767324 29.62934272 44.61279297 31.14501953 C44.95126251 32.33360565 44.95126251 32.33360565 45.29656982 33.54620361 C47.23862569 40.3207348 49.27097727 47.06941731 51.28442383 53.82299805 C51.80671345 55.57800262 52.32719758 57.33354544 52.84594727 59.08959961 C56.70650595 76.28108237 56.70650595 76.28108237 66.25 90.125 C66.95640625 90.68445313 67.6628125 91.24390625 68.390625 91.8203125 C69.18726563 92.40425781 69.18726563 92.40425781 70 93 C69.505 94.485 69.505 94.485 69 96 C54.48 96 39.96 96 25 96 C24 92 24 92 24.9296875 89.3671875 C26.35530887 84.88220349 26.21567922 80.79297359 26.125 76.125 C26.08375 73.11375 26.0425 70.1025 26 67 C15.11 67 4.22 67 -7 67 C-7 76.04013444 -6.30776755 82.52333699 -0.25 89.375 C2 92 2 92 2 96 C-8.23 96 -18.46 96 -29 96 C-29 94.68 -29 93.36 -29 92 C-27.42578125 90.6484375 -27.42578125 90.6484375 -25.3125 89.375 C-17.08456361 83.62527961 -14.82126148 73.05334463 -12.08203125 63.859375 C-11.73871262 62.73356018 -11.39539398 61.60774536 -11.04167175 60.44781494 C-9.95690345 56.88435563 -8.88439464 53.31735034 -7.8125 49.75 C-6.727059 46.16927296 -5.6391564 42.58929975 -4.55119324 39.00933838 C-3.87798132 36.79068934 -3.20675633 34.57143614 -2.53779602 32.35150146 C-1.33251461 28.35421733 -0.12274556 24.36781177 1.19897461 20.40722656 C2.56512774 16.30168867 3.04276617 12.13993753 1.1015625 8.15625 C-0.08840166 6.31457487 -0.08840166 6.31457487 -2 4 C-1.34 2.68 -0.68 1.36 0 0 Z " fill="#6EA654" transform="translate(1593,491)"/>
<path d="M0 0 C7.63292328 -0.09322558 15.26578654 -0.16402886 22.8991518 -0.20724869 C26.44477451 -0.22800619 29.99000394 -0.25610231 33.53540039 -0.30175781 C37.62389616 -0.35406955 41.71198745 -0.37304276 45.80078125 -0.390625 C47.05643387 -0.41127014 48.31208649 -0.43191528 49.60578918 -0.45318604 C58.08997168 -0.45532136 66.62772434 0.16653514 73.26850891 5.98895264 C75.94154781 9.09356454 75.61035298 11.63972708 75.46484375 15.5859375 C74.76139745 19.2391292 72.9237275 20.84201065 70 23 C66.82912985 24.58543507 64.52009516 24.34065437 61 24 C54.5250205 21.51157651 51.15596223 16.93118007 47.54296875 11.20703125 C45.34639279 8.06509348 43.5560213 7.10902378 39.8125 6.375 C38.884375 6.25125 37.95625 6.1275 37 6 C35.76636652 18.96627531 35.4530886 31.98863562 35 45 C43.33087659 44.69714904 43.33087659 44.69714904 50.421875 40.86328125 C52.11202676 38.63884599 53.62484252 36.43027831 55 34 C55.99 34.33 56.98 34.66 58 35 C58 43.91 58 52.82 58 62 C53 61 53 61 51.26953125 59.1875 C50.78871094 58.465625 50.30789062 57.74375 49.8125 57 C47.8783392 53.97055277 47.8783392 53.97055277 45 52 C43.29636178 51.77377919 41.58671299 51.59111527 39.875 51.4375 C38.96492188 51.35371094 38.05484375 51.26992188 37.1171875 51.18359375 C36.41851563 51.12300781 35.71984375 51.06242188 35 51 C35.14132604 55.22932952 35.28891669 59.45841971 35.4375 63.6875 C35.47681641 64.86634766 35.51613281 66.04519531 35.55664062 67.25976562 C35.83921505 75.19358612 36.32754051 83.08973117 37 91 C51.59663787 90.99944594 51.59663787 90.99944594 63.953125 84.1328125 C66.57273738 81.21601721 68.89858308 78.13522256 71.25 75 C72.11625 74.01 72.11625 74.01 73 73 C73.99 73 74.98 73 76 73 C76.05789006 76.45826342 76.09355821 79.91640293 76.125 83.375 C76.14175781 84.35984375 76.15851562 85.3446875 76.17578125 86.359375 C76.18222656 87.30039062 76.18867188 88.24140625 76.1953125 89.2109375 C76.20578613 90.08024902 76.21625977 90.94956055 76.22705078 91.84521484 C76 94 76 94 74 96 C70.95016479 96.24050903 70.95016479 96.24050903 66.97998047 96.22705078 C66.25792419 96.22734283 65.53586792 96.22763489 64.79193115 96.22793579 C62.40022858 96.22654008 60.00883579 96.21096783 57.6171875 96.1953125 C55.9609494 96.19158322 54.30470911 96.18873585 52.64846802 96.18673706 C48.2852776 96.17909389 43.92221993 96.1594396 39.55908203 96.1373291 C35.10841671 96.11688535 30.65772997 96.1077385 26.20703125 96.09765625 C17.47129319 96.07619429 8.7356631 96.04205018 0 96 C0.61849038 92.53828958 1.07054576 90.45982631 3.5 87.875 C7.13981267 83.68921543 7.13289423 80.80190885 7.17700195 75.4206543 C7.18685875 74.42495926 7.18685875 74.42495926 7.19691467 73.40914917 C7.21661179 71.21417115 7.22830216 69.01926144 7.23828125 66.82421875 C7.24235678 66.07321207 7.2464323 65.32220539 7.25063133 64.54844093 C7.27147676 60.57339377 7.28578507 56.59838098 7.29516602 52.62329102 C7.30622759 48.52421572 7.34062833 44.42568369 7.38033772 40.32680035 C7.40652063 37.16885896 7.41485929 34.01104674 7.41844749 30.85300636 C7.42330914 29.34236799 7.43491121 27.83173523 7.45348549 26.32120323 C7.47791455 24.2028775 7.47690616 22.08595366 7.4699707 19.9675293 C7.47583694 18.76412399 7.48170319 17.56071869 7.48774719 16.32084656 C6.80324032 11.66035371 4.67544729 8.55577249 1.25 5.375 C0 4 0 4 0 0 Z " fill="#6FA754" transform="translate(2162,491)"/>
<path d="M0 0 C7.65019455 -0.09315209 15.30032944 -0.16399231 22.95096397 -0.20724869 C26.50446139 -0.22802189 30.05756754 -0.25614773 33.61083984 -0.30175781 C37.70674143 -0.35399721 41.80223942 -0.37302984 45.8984375 -0.390625 C47.1592514 -0.41127014 48.42006531 -0.43191528 49.71908569 -0.45318604 C58.74848257 -0.45545844 65.78469792 0.88067646 73.125 6.3125 C75.58285826 9.83543018 75.60250239 11.78248324 75 16 C73.20962547 20.14613048 71.14613048 22.20962547 67 24 C62.4055191 24.78019487 59.74120224 24.16759247 56 21.5625 C52.21452099 18.48266368 49.37442581 14.90774912 46.54296875 10.953125 C43.35675187 6.91993907 41.24105007 6.87350835 36 6 C35.34 18.87 34.68 31.74 34 45 C45.04392044 45.21429962 45.04392044 45.21429962 48.81640625 41.71484375 C49.39261719 40.79832031 49.96882812 39.88179687 50.5625 38.9375 C51.65799524 37.25774062 52.79349556 35.60188902 54 34 C54.99 34 55.98 34 57 34 C57 43.24 57 52.48 57 62 C52.60572009 60.90143002 52.27233884 60.51442343 49.875 57 C47.89926624 53.97716106 47.89926624 53.97716106 45 52 C43.12943209 51.7724985 41.25314042 51.59037189 39.375 51.4375 C38.37210938 51.35371094 37.36921875 51.26992188 36.3359375 51.18359375 C35.56507813 51.12300781 34.79421875 51.06242188 34 51 C34.06058594 51.82089111 34.12117187 52.64178223 34.18359375 53.48754883 C34.41040361 56.58677477 34.63359825 59.68623588 34.85449219 62.78588867 C34.99663687 64.76565883 35.14280109 66.74513909 35.2890625 68.72460938 C35.81653558 76.16574746 36.1400727 83.54015605 36 91 C50.17908408 90.94287662 50.17908408 90.94287662 62.5625 84.875 C63.99734303 83.18262104 65.39951404 81.45974806 66.71875 79.67578125 C67.3271875 78.85464844 67.935625 78.03351563 68.5625 77.1875 C69.12066406 76.39730469 69.67882812 75.60710937 70.25390625 74.79296875 C70.83011719 74.20128906 71.40632812 73.60960937 72 73 C73.32 73 74.64 73 76 73 C76.08706892 76.27066566 76.14041241 79.54103365 76.1875 82.8125 C76.21263672 83.74126953 76.23777344 84.67003906 76.26367188 85.62695312 C76.27333984 86.51962891 76.28300781 87.41230469 76.29296875 88.33203125 C76.3086792 89.15421143 76.32438965 89.9763916 76.34057617 90.82348633 C76 93 76 93 74.91882324 94.61474609 C71.99469104 96.72576157 69.52962913 96.35901702 65.95825195 96.34057617 C65.24580322 96.34101425 64.53335449 96.34145233 63.79931641 96.34190369 C61.44535885 96.3398143 59.09211431 96.31647715 56.73828125 96.29296875 C55.10589487 96.2873733 53.47350345 96.28310296 51.84111023 96.28010559 C47.54525842 96.2686527 43.24971104 96.23918187 38.95397949 96.20599365 C34.57027301 96.17530224 30.18651733 96.16160225 25.80273438 96.14648438 C17.20168323 96.11431245 8.60087949 96.06311093 0 96 C0 91.54996986 0.75237041 90.76578662 3.7109375 87.66015625 C6.89241575 83.5627979 7.25977494 79.46998822 7.30639648 74.40893555 C7.32238388 73.09374435 7.33837128 71.77855316 7.35484314 70.42350769 C7.36122086 68.99458201 7.36661328 67.56565164 7.37109375 66.13671875 C7.38006887 64.66087253 7.38919087 63.18502719 7.39845276 61.70918274 C7.41491709 58.61835526 7.42263805 55.52763576 7.42553711 52.43676758 C7.43091526 48.49245156 7.46858111 44.54916242 7.51428127 40.60513592 C7.5441496 37.55689364 7.55126278 34.50889563 7.55226326 31.46051979 C7.55644704 30.00734573 7.56880693 28.55416969 7.58978081 27.10114098 C7.77813687 15.60042407 7.77813687 15.60042407 2 6 C1.01 5.34 0.02 4.68 -1 4 C-0.67 2.68 -0.34 1.36 0 0 Z " fill="#6EA653" transform="translate(949,491)"/>
<path d="M0 0 C8.30218275 -0.09309675 16.60414372 -0.16396427 24.90672112 -0.20724869 C28.76287279 -0.22803376 32.61866469 -0.25618242 36.47460938 -0.30175781 C40.20290741 -0.34554361 43.93086161 -0.36920521 47.65939713 -0.37950897 C49.07464121 -0.3868422 50.48986864 -0.40116079 51.90496445 -0.42292023 C61.44167912 -0.56359548 69.96318726 -0.1768691 77.5625 6.125 C80.16019622 9.51329942 80.40950733 11.74112379 80 16 C78.36564595 19.03522895 76.944447 21.28352297 74.1875 23.375 C70.17568788 24.52123203 66.8429106 24.95410529 63.015625 22.97265625 C58.27133929 19.65349512 54.94829355 15.67377817 51.640625 10.953125 C49.86361259 8.83763404 48.57443054 7.95535508 46 7 C42.83304044 6.83275263 42.83304044 6.83275263 40 7 C37.51012107 11.44232497 36.45052188 15.13860349 35.875 20.1875 C35.79717285 20.86296875 35.7193457 21.5384375 35.63916016 22.234375 C34.71280665 30.79489129 34.35520378 39.40032965 34 48 C36.0632984 47.93958131 38.12577414 47.85068362 40.1875 47.75 C41.33605469 47.70359375 42.48460937 47.6571875 43.66796875 47.609375 C48.30345444 46.76161912 50.6376833 44.65496251 53.58203125 41.078125 C53.98808594 40.47484375 54.39414062 39.8715625 54.8125 39.25 C55.534375 38.1775 56.25625 37.105 57 36 C57.99 36.33 58.98 36.66 60 37 C60 45.91 60 54.82 60 64 C58.35 63.67 56.7 63.34 55 63 C53 59.5625 53 59.5625 52.1875 57.69140625 C50.48192963 55.26209056 48.81621744 54.83964258 46 54 C44.07096868 53.7240522 42.1310968 53.51550097 40.1875 53.375 C39.21167969 53.30023437 38.23585938 53.22546875 37.23046875 53.1484375 C36.49441406 53.09945312 35.75835938 53.05046875 35 53 C34.39326599 72.05063883 34.39326599 72.05063883 40.1875 89.4375 C40.785625 90.283125 41.38375 91.12875 42 92 C41.505 93.98 41.505 93.98 41 96 C27.47 96 13.94 96 0 96 C1.11816839 90.40915805 1.11816839 90.40915805 3.5 87.875 C7.13981267 83.68921543 7.13289423 80.80190885 7.17700195 75.4206543 C7.18685875 74.42495926 7.18685875 74.42495926 7.19691467 73.40914917 C7.21661179 71.21417115 7.22830216 69.01926144 7.23828125 66.82421875 C7.24235678 66.07321207 7.2464323 65.32220539 7.25063133 64.54844093 C7.27147676 60.57339377 7.28578507 56.59838098 7.29516602 52.62329102 C7.30622759 48.52421572 7.34062833 44.42568369 7.38033772 40.32680035 C7.40652063 37.16885896 7.41485929 34.01104674 7.41844749 30.85300636 C7.42330914 29.34236799 7.43491121 27.83173523 7.45348549 26.32120323 C7.47791455 24.2028775 7.47690616 22.08595366 7.4699707 19.9675293 C7.47583694 18.76412399 7.48170319 17.56071869 7.48774719 16.32084656 C6.80324032 11.66035371 4.67544729 8.55577249 1.25 5.375 C0 4 0 4 0 0 Z " fill="#6FA654" transform="translate(774,491)"/>
<path d="M0 0 C15.84 0 31.68 0 48 0 C48.495 1.98 48.495 1.98 49 4 C48.34 4.99 47.68 5.98 47 7 C46.4411838 12.5949768 47.77331922 16.70675131 50.125 21.6875 C50.59498413 22.72100586 50.59498413 22.72100586 51.07446289 23.77539062 C53.89555184 29.92532187 56.89254684 35.98998071 60 42 C66.76246433 29.39898071 66.76246433 29.39898071 73.1875 16.625 C73.57292969 15.83351563 73.95835937 15.04203125 74.35546875 14.2265625 C75.15866186 11.4518954 74.8479622 9.73850089 74 7 C73.46375 6.484375 72.9275 5.96875 72.375 5.4375 C71.694375 4.7259375 71.694375 4.7259375 71 4 C71.33 2.68 71.66 1.36 72 0 C79.26 0 86.52 0 94 0 C94.495 1.98 94.495 1.98 95 4 C94.32453125 4.37511719 93.6490625 4.75023437 92.953125 5.13671875 C91.61507812 5.90435547 91.61507812 5.90435547 90.25 6.6875 C89.36828125 7.18636719 88.4865625 7.68523437 87.578125 8.19921875 C81.90586112 12.16120913 79.24022029 18.03806975 76.234375 24.0703125 C75.79611389 24.94718719 75.35785278 25.82406189 74.90631104 26.72750854 C73.9850255 28.5798884 73.06743468 30.43410989 72.15332031 32.29003906 C70.76000315 35.10479182 69.33750884 37.90351635 67.9140625 40.703125 C67.01898015 42.51210506 66.12569226 44.32197435 65.234375 46.1328125 C64.80944763 46.95717804 64.38452026 47.78154358 63.94671631 48.63088989 C59.64158698 57.56192421 60.53000776 66.29700662 62.3125 75.8125 C62.48942383 76.87887695 62.48942383 76.87887695 62.66992188 77.96679688 C63.63422149 83.32236859 65.05077221 88.05077221 69 92 C68.505 93.98 68.505 93.98 68 96 C54.14 96 40.28 96 26 96 C25.67 94.68 25.34 93.36 25 92 C25.94813457 90.64552205 26.90102783 89.29410046 27.87890625 87.9609375 C32.8813787 79.21096827 33.93125144 65.89697139 33 56 C32.03633911 52.73846366 30.62530768 49.80178287 29.08984375 46.7734375 C28.68472061 45.94091461 28.27959747 45.10839172 27.86219788 44.25064087 C27.00650383 42.503268 26.14122687 40.76055812 25.2668457 39.02246094 C23.94290314 36.38576063 22.6540813 33.73401308 21.36914062 31.078125 C20.52807383 29.37139289 19.68503827 27.66562928 18.83984375 25.9609375 C18.27063454 24.79031265 18.27063454 24.79031265 17.68992615 23.59603882 C14.0499729 16.429231 9.19178537 10.15213008 2.5625 5.5 C1.88316406 5.0153125 1.20382813 4.530625 0.50390625 4.03125 C0.00761719 3.6909375 -0.48867187 3.350625 -1 3 C-0.67 2.01 -0.34 1.02 0 0 Z " fill="#6EA654" transform="translate(2430,491)"/>
<path d="M0 0 C0.33 0 0.66 0 1 0 C1.20933172 8.18883117 1.36883809 16.37652936 1.46630955 24.56738186 C1.51311346 28.37165323 1.57649267 32.17408331 1.67895508 35.97729492 C1.77737586 39.65386336 1.83068375 43.3286715 1.85389519 47.00645638 C1.87041549 48.40321619 1.90267925 49.7998888 1.95157051 51.19589043 C2.31559986 62.02956426 2.31559986 62.02956426 -0.90310669 66.85037231 C-6.79281985 72.94908976 -12.65894171 75.93456922 -21.125 76.375 C-26.90241447 75.81589537 -30.53388955 74.39946907 -34.75 70.375 C-40.15545089 63.09637306 -40.81154438 54.80300218 -40 46 C-37.80095264 32.42088254 -30.0915842 23.72496705 -19.25927734 15.71240234 C-16.82700882 13.96124641 -14.38595255 12.22654036 -11.91015625 10.53735352 C-8.21396774 7.99253194 -5.08500904 5.25427503 -2 2 C-1.34 1.34 -0.68 0.68 0 0 Z " fill="#F1FCF5" transform="translate(1762,301)"/>
<path d="M0 0 C6.05856092 2.4785022 9.51429732 7.63256462 12.1875 13.375 C17.92618112 27.25890594 17 40.92835964 17 56 C1.16 56 -14.68 56 -31 56 C-31 39.20603762 -29.51855108 20.32701925 -18 7 C-12.15137132 1.2370207 -8.29085614 -0.77861953 0 0 Z " fill="#F2FDF7" transform="translate(2064,236)"/>
<path d="M0 0 C5.42414493 2.21896838 8.55338 6.71879153 11.625 11.5625 C17.37023772 25.92559429 17 40.63431315 17 56 C1.16 56 -14.68 56 -31 56 C-31 38.92873294 -29.22653018 20.66823414 -18 7 C-12.17538383 1.22402363 -8.27267067 -0.77691168 0 0 Z " fill="#F2FDF7" transform="translate(1146,236)"/>
<path d="M0 0 C0.33 0 0.66 0 1 0 C1.11604531 8.2408486 1.20479072 16.4813537 1.25906086 24.72281837 C1.28511309 28.55004438 1.32042891 32.37670985 1.37719727 36.20361328 C1.43167656 39.89949394 1.46145343 43.59483678 1.47438622 47.2910881 C1.48359787 48.69850503 1.50158679 50.10589375 1.52865028 51.5130806 C1.75779023 63.92531471 1.75779023 63.92531471 -1.35083008 67.77099609 C-8.7136999 73.96609346 -15.37244973 76.76409129 -25 76 C-30.22090461 74.0549571 -34.15318577 71.19868225 -36.9765625 66.30859375 C-40.55189703 57.77122952 -40.96144938 44.54991076 -37.4375 35.9375 C-36.3046875 33.9296875 -36.3046875 33.9296875 -35 32 C-34.54882812 31.28070313 -34.09765625 30.56140625 -33.6328125 29.8203125 C-28.0060669 21.73011609 -19.77881946 16.3956332 -11.85546875 10.765625 C-10.89253906 10.07984375 -9.92960937 9.3940625 -8.9375 8.6875 C-8.08027344 8.09324219 -7.22304687 7.49898438 -6.33984375 6.88671875 C-3.79905774 4.83797143 -1.98948036 2.57436101 0 0 Z " fill="#F2FDF7" transform="translate(1306,301)"/>
<path d="M0 0 C8.2353918 1.05652791 13.82235114 4.04710623 19.25 10.4375 C28.31461001 23.90781432 29.06353679 40.76462714 26.07421875 56.3203125 C23.79170916 66.75449615 19.73284451 74.76334316 11.13671875 81.44921875 C7.38908142 83.81745963 4.37887122 84.42720695 0 84 C-1.18552003 80.14379613 -1.34087104 76.23188737 -1.55078125 72.23046875 C-1.59262039 71.44721725 -1.63445953 70.66396576 -1.67756653 69.85697937 C-2.13812334 60.37022471 -2.18606092 50.88177723 -2.18530273 41.38549805 C-2.18750487 38.30568925 -2.20579318 35.22623107 -2.22460938 32.14648438 C-2.25444625 21.25209056 -1.88130639 10.74742908 0 0 Z " fill="#F2FEF7" transform="translate(2382,497)"/>
<path d="M0 0 C4.51152347 2.59266121 7.64242261 5.65857471 10.5625 9.9375 C11.490625 11.2678125 11.490625 11.2678125 12.4375 12.625 C14.81230891 19.61749291 14.58023756 26.58274006 11.5 33.3125 C7.82740711 39.73953756 2.88998529 44.16920534 -4.203125 46.46484375 C-10.89021578 47.87942065 -17.49887125 47.88209495 -23.51953125 44.40625 C-28.79110056 40.36936597 -33.4749401 35.36392162 -35.4375 28.9375 C-36.30338062 21.07409575 -35.95888583 14.53840824 -31.4375 7.9375 C-30.6021875 6.6071875 -30.6021875 6.6071875 -29.75 5.25 C-21.49293944 -3.00706056 -10.73870435 -4.867997 0 0 Z " fill="#6EBA47" transform="translate(1991.4375,532.0625)"/>
<path d="M0 0 C6.6470889 3.46329129 11.62099634 9.17548903 14 16.3125 C14.76480669 25.47764252 14.28596707 32.06112946 8.421875 39.24609375 C4.10984662 43.91745783 -0.10021498 46.89738045 -6.60546875 47.58984375 C-14.85315276 47.87424665 -20.73519946 46.3370634 -27.25 41.25 C-32.77154673 36.07626724 -35.10411437 29.79946522 -35.5625 22.3125 C-35.23720524 15.62821737 -32.57244443 10.06832661 -28.02734375 5.19921875 C-19.83821451 -2.19395774 -10.63101224 -4.41321012 0 0 Z " fill="#6EBA47" transform="translate(1337,531.6875)"/>
<path d="M0 0 C3 1 3 1 4.68359375 4.10546875 C5.28231144 5.46000846 5.86603707 6.82123838 6.4375 8.1875 C6.74461914 8.90784424 7.05173828 9.62818848 7.36816406 10.37036133 C11.90422172 21.2758199 14.34483822 32.49429895 17 44 C7.1 44 -2.8 44 -13 44 C-9.55218405 30.20873619 -9.55218405 30.20873619 -7.51953125 23.828125 C-7.19295784 22.7881839 -7.19295784 22.7881839 -6.85978699 21.72723389 C-6.18063297 19.56710752 -5.49668373 17.40853784 -4.8125 15.25 C-4.3440784 13.76312244 -3.87597739 12.27614384 -3.40820312 10.7890625 C-2.27581814 7.19153592 -1.13913782 3.59539375 0 0 Z " fill="#F0FCF5" transform="translate(2280,508)"/>
<path d="M0 0 C3 1 3 1 4.68359375 4.10546875 C5.28231144 5.46000846 5.86603707 6.82123838 6.4375 8.1875 C6.74461914 8.90784424 7.05173828 9.62818848 7.36816406 10.37036133 C11.90422172 21.2758199 14.34483822 32.49429895 17 44 C7.1 44 -2.8 44 -13 44 C-9.55218405 30.20873619 -9.55218405 30.20873619 -7.51953125 23.828125 C-7.19295784 22.7881839 -7.19295784 22.7881839 -6.85978699 21.72723389 C-6.18063297 19.56710752 -5.49668373 17.40853784 -4.8125 15.25 C-4.3440784 13.76312244 -3.87597739 12.27614384 -3.40820312 10.7890625 C-2.27581814 7.19153592 -1.13913782 3.59539375 0 0 Z " fill="#F0FCF5" transform="translate(1601,508)"/>
<path d="M0 0 C4.20891862 0.4926101 5.98010284 1.51329149 8.6875 4.75 C9.55955078 5.76320313 9.55955078 5.76320313 10.44921875 6.796875 C14.83299011 13.02470132 14.85576981 19.62116846 14 27 C11.68530597 33.62844199 7.8922089 37.64108552 1.9375 41.25 C0 42 0 42 -4 42 C-4.31742632 7.88399589 -4.31742632 7.88399589 0 0 Z " fill="#F1FDF6" transform="translate(2105,499)"/>
<path d="M0 0 C3.92510917 0.58149765 6.15007824 2.29257432 9 5 C13.47312394 11.41147765 14.70731484 17.32058173 14 25 C12.39307753 31.6167396 9.39070909 36.70003524 3.5 40.3125 C0 42 0 42 -4 42 C-4.05895136 37.75006008 -4.0939116 33.50022784 -4.125 29.25 C-4.14175781 28.06277344 -4.15851563 26.87554688 -4.17578125 25.65234375 C-4.2808689 6.42130335 -4.2808689 6.42130335 0 0 Z " fill="#F1FDF6" transform="translate(1705,499)"/>
<path d="M0 0 C3.92510917 0.58149765 6.15007824 2.29257432 9 5 C13.47312394 11.41147765 14.70731484 17.32058173 14 25 C12.39307753 31.6167396 9.39070909 36.70003524 3.5 40.3125 C0 42 0 42 -4 42 C-4.05895136 37.75006008 -4.0939116 33.50022784 -4.125 29.25 C-4.14175781 28.06277344 -4.15851562 26.87554688 -4.17578125 25.65234375 C-4.2808689 6.42130335 -4.2808689 6.42130335 0 0 Z " fill="#F1FDF6" transform="translate(892,499)"/>
</svg>
